<mxfile host="app.diagrams.net" agent="Mozilla/5.0 (Windows NT 10.0; Win64; x64) AppleWebKit/537.36 (KHTML, like Gecko) Chrome/129.0.0.0 Safari/537.36" version="24.7.17">
  <diagram id="R2lEEEUBdFMjLlhIrx00" name="Page-1">
    <mxGraphModel dx="2307" dy="910" grid="1" gridSize="10" guides="1" tooltips="1" connect="1" arrows="1" fold="1" page="1" pageScale="1" pageWidth="850" pageHeight="1100" math="0" shadow="0" extFonts="Permanent Marker^https://fonts.googleapis.com/css?family=Permanent+Marker">
      <root>
        <mxCell id="0" />
        <mxCell id="1" parent="0" />
        <mxCell id="F2KtdEp4NuPGQQRKZKPt-2" value="" style="edgeStyle=orthogonalEdgeStyle;rounded=0;orthogonalLoop=1;jettySize=auto;html=1;strokeColor=none;endArrow=none;" parent="1" source="F2KtdEp4NuPGQQRKZKPt-3" target="F2KtdEp4NuPGQQRKZKPt-6" edge="1">
          <mxGeometry relative="1" as="geometry" />
        </mxCell>
        <mxCell id="F2KtdEp4NuPGQQRKZKPt-3" value="Wallet" style="rounded=1;arcSize=10;whiteSpace=wrap;html=1;align=center;" parent="1" vertex="1">
          <mxGeometry x="-20" y="170" width="100" height="40" as="geometry" />
        </mxCell>
        <mxCell id="F2KtdEp4NuPGQQRKZKPt-4" value="Currency" style="ellipse;whiteSpace=wrap;html=1;align=center;" parent="1" vertex="1">
          <mxGeometry x="-20" y="80" width="100" height="40" as="geometry" />
        </mxCell>
        <mxCell id="F2KtdEp4NuPGQQRKZKPt-5" value="Current Balance" style="ellipse;whiteSpace=wrap;html=1;align=center;" parent="1" vertex="1">
          <mxGeometry x="150" y="160" width="100" height="40" as="geometry" />
        </mxCell>
        <mxCell id="F2KtdEp4NuPGQQRKZKPt-6" value="Wallet_ID" style="ellipse;whiteSpace=wrap;html=1;align=center;fontStyle=4;" parent="1" vertex="1">
          <mxGeometry x="120" y="110" width="100" height="40" as="geometry" />
        </mxCell>
        <mxCell id="F2KtdEp4NuPGQQRKZKPt-7" value="" style="endArrow=none;html=1;rounded=0;exitX=0.5;exitY=0;exitDx=0;exitDy=0;entryX=0.5;entryY=1;entryDx=0;entryDy=0;" parent="1" source="F2KtdEp4NuPGQQRKZKPt-3" target="F2KtdEp4NuPGQQRKZKPt-4" edge="1">
          <mxGeometry relative="1" as="geometry">
            <mxPoint x="-70" y="59.5" as="sourcePoint" />
            <mxPoint x="90" y="59.5" as="targetPoint" />
          </mxGeometry>
        </mxCell>
        <mxCell id="MBuhAYIkGiriPWJrQsRO-3" value="" style="endArrow=none;html=1;rounded=0;entryX=0.5;entryY=1;entryDx=0;entryDy=0;exitX=1;exitY=0.5;exitDx=0;exitDy=0;exitPerimeter=0;" parent="1" source="F2KtdEp4NuPGQQRKZKPt-3" target="F2KtdEp4NuPGQQRKZKPt-6" edge="1">
          <mxGeometry relative="1" as="geometry">
            <mxPoint x="90" y="190" as="sourcePoint" />
            <mxPoint x="230" y="190" as="targetPoint" />
          </mxGeometry>
        </mxCell>
        <mxCell id="nOJYXH8r22cCcYCmpwuw-3" value="Customer Account" style="rounded=1;arcSize=10;whiteSpace=wrap;html=1;align=center;" parent="1" vertex="1">
          <mxGeometry x="620" y="420" width="100" height="40" as="geometry" />
        </mxCell>
        <object label="&lt;u&gt;National ID&lt;/u&gt;" id="YVMlVOvHzLtNW060m_QN-1">
          <mxCell style="ellipse;whiteSpace=wrap;html=1;align=center;" parent="1" vertex="1">
            <mxGeometry x="480" y="130" width="100" height="40" as="geometry" />
          </mxCell>
        </object>
        <mxCell id="nOJYXH8r22cCcYCmpwuw-6" value="Owned by" style="shape=rhombus;perimeter=rhombusPerimeter;whiteSpace=wrap;html=1;align=center;" parent="1" vertex="1">
          <mxGeometry x="350" y="310" width="120" height="60" as="geometry" />
        </mxCell>
        <mxCell id="YVMlVOvHzLtNW060m_QN-2" value="Name" style="ellipse;whiteSpace=wrap;html=1;align=center;" parent="1" vertex="1">
          <mxGeometry x="660" y="190" width="100" height="40" as="geometry" />
        </mxCell>
        <mxCell id="nOJYXH8r22cCcYCmpwuw-7" value="" style="edgeStyle=entityRelationEdgeStyle;fontSize=12;html=1;endArrow=ERmandOne;rounded=0;entryX=0;entryY=0.25;entryDx=0;entryDy=0;exitX=1;exitY=0.5;exitDx=0;exitDy=0;" parent="1" source="nOJYXH8r22cCcYCmpwuw-6" target="nOJYXH8r22cCcYCmpwuw-3" edge="1">
          <mxGeometry width="100" height="100" relative="1" as="geometry">
            <mxPoint x="380" y="330" as="sourcePoint" />
            <mxPoint x="480" y="230" as="targetPoint" />
          </mxGeometry>
        </mxCell>
        <mxCell id="nOJYXH8r22cCcYCmpwuw-9" value="&amp;nbsp;Transaction" style="rounded=1;arcSize=10;whiteSpace=wrap;html=1;align=center;" parent="1" vertex="1">
          <mxGeometry x="-57.5" y="310" width="100" height="40" as="geometry" />
        </mxCell>
        <mxCell id="YVMlVOvHzLtNW060m_QN-7" value="" style="endArrow=none;html=1;rounded=0;entryX=0.5;entryY=0;entryDx=0;entryDy=0;exitX=0.5;exitY=1;exitDx=0;exitDy=0;" parent="1" source="YVMlVOvHzLtNW060m_QN-10" target="nOJYXH8r22cCcYCmpwuw-1" edge="1">
          <mxGeometry relative="1" as="geometry">
            <mxPoint x="610" y="100" as="sourcePoint" />
            <mxPoint x="790" y="99.5" as="targetPoint" />
          </mxGeometry>
        </mxCell>
        <mxCell id="nOJYXH8r22cCcYCmpwuw-10" value="" style="edgeStyle=orthogonalEdgeStyle;fontSize=12;html=1;endArrow=ERmandOne;rounded=0;entryX=0.75;entryY=1;entryDx=0;entryDy=0;exitX=0;exitY=0.5;exitDx=0;exitDy=0;" parent="1" source="nOJYXH8r22cCcYCmpwuw-6" target="F2KtdEp4NuPGQQRKZKPt-3" edge="1">
          <mxGeometry width="100" height="100" relative="1" as="geometry">
            <mxPoint x="380" y="330" as="sourcePoint" />
            <mxPoint x="480" y="230" as="targetPoint" />
          </mxGeometry>
        </mxCell>
        <mxCell id="YVMlVOvHzLtNW060m_QN-8" value="" style="endArrow=none;html=1;rounded=0;exitX=0;exitY=0.5;exitDx=0;exitDy=0;entryX=1;entryY=0.5;entryDx=0;entryDy=0;" parent="1" source="nOJYXH8r22cCcYCmpwuw-1" target="YVMlVOvHzLtNW060m_QN-1" edge="1">
          <mxGeometry relative="1" as="geometry">
            <mxPoint x="430" y="190" as="sourcePoint" />
            <mxPoint x="590" y="190" as="targetPoint" />
          </mxGeometry>
        </mxCell>
        <mxCell id="YVMlVOvHzLtNW060m_QN-10" value="Email" style="ellipse;whiteSpace=wrap;html=1;align=center;" parent="1" vertex="1">
          <mxGeometry x="510" y="70" width="100" height="40" as="geometry" />
        </mxCell>
        <mxCell id="nOJYXH8r22cCcYCmpwuw-13" value="Amount transferred" style="ellipse;whiteSpace=wrap;html=1;align=center;" parent="1" vertex="1">
          <mxGeometry x="-70" y="390" width="100" height="40" as="geometry" />
        </mxCell>
        <mxCell id="YVMlVOvHzLtNW060m_QN-14" value="" style="endArrow=none;html=1;rounded=0;entryX=0.5;entryY=0;entryDx=0;entryDy=0;exitX=1;exitY=0;exitDx=0;exitDy=0;" parent="1" source="YVMlVOvHzLtNW060m_QN-2" target="YVMlVOvHzLtNW060m_QN-17" edge="1">
          <mxGeometry relative="1" as="geometry">
            <mxPoint x="730" y="140" as="sourcePoint" />
            <mxPoint x="800" y="160" as="targetPoint" />
          </mxGeometry>
        </mxCell>
        <mxCell id="YVMlVOvHzLtNW060m_QN-15" value="" style="endArrow=none;html=1;rounded=0;entryX=0.5;entryY=0;entryDx=0;entryDy=0;" parent="1" source="nOJYXH8r22cCcYCmpwuw-1" target="YVMlVOvHzLtNW060m_QN-2" edge="1">
          <mxGeometry relative="1" as="geometry">
            <mxPoint x="680" y="169" as="sourcePoint" />
            <mxPoint x="840" y="169" as="targetPoint" />
          </mxGeometry>
        </mxCell>
        <mxCell id="nOJYXH8r22cCcYCmpwuw-15" value="Date of transaction" style="ellipse;whiteSpace=wrap;html=1;align=center;" parent="1" vertex="1">
          <mxGeometry x="-230" y="315" width="100" height="40" as="geometry" />
        </mxCell>
        <mxCell id="YVMlVOvHzLtNW060m_QN-17" value="Last Name" style="ellipse;whiteSpace=wrap;html=1;align=center;" parent="1" vertex="1">
          <mxGeometry x="790" y="160" width="100" height="40" as="geometry" />
        </mxCell>
        <mxCell id="YVMlVOvHzLtNW060m_QN-18" value="Address" style="ellipse;whiteSpace=wrap;html=1;align=center;" parent="1" vertex="1">
          <mxGeometry x="630" y="60" width="100" height="40" as="geometry" />
        </mxCell>
        <mxCell id="nOJYXH8r22cCcYCmpwuw-19" value="Technical support ticket" style="shape=ext;margin=3;double=1;whiteSpace=wrap;html=1;align=center;" parent="1" vertex="1">
          <mxGeometry x="550" y="690" width="100" height="40" as="geometry" />
        </mxCell>
        <mxCell id="YVMlVOvHzLtNW060m_QN-19" value="Date of Birth" style="ellipse;whiteSpace=wrap;html=1;align=center;" parent="1" vertex="1">
          <mxGeometry x="760" y="70" width="100" height="40" as="geometry" />
        </mxCell>
        <mxCell id="nOJYXH8r22cCcYCmpwuw-20" value="" style="fontSize=12;html=1;endArrow=ERmandOne;rounded=0;entryX=0.335;entryY=1.004;entryDx=0;entryDy=0;exitX=0.5;exitY=0;exitDx=0;exitDy=0;entryPerimeter=0;" parent="1" target="nOJYXH8r22cCcYCmpwuw-3" edge="1">
          <mxGeometry width="100" height="100" relative="1" as="geometry">
            <mxPoint x="630" y="560" as="sourcePoint" />
            <mxPoint x="590" y="530" as="targetPoint" />
          </mxGeometry>
        </mxCell>
        <mxCell id="YVMlVOvHzLtNW060m_QN-20" value="" style="endArrow=none;html=1;rounded=0;fontFamily=Helvetica;fontSize=12;fontColor=default;fontStyle=4;exitX=0.5;exitY=1;exitDx=0;exitDy=0;entryX=0.5;entryY=0;entryDx=0;entryDy=0;" parent="1" source="YVMlVOvHzLtNW060m_QN-18" target="nOJYXH8r22cCcYCmpwuw-1" edge="1">
          <mxGeometry relative="1" as="geometry">
            <mxPoint x="530" y="129" as="sourcePoint" />
            <mxPoint x="690" y="129" as="targetPoint" />
          </mxGeometry>
        </mxCell>
        <mxCell id="nOJYXH8r22cCcYCmpwuw-21" value="" style="fontSize=12;html=1;endArrow=ERzeroToMany;endFill=1;rounded=0;entryX=0.5;entryY=0;entryDx=0;entryDy=0;exitX=0.5;exitY=1;exitDx=0;exitDy=0;" parent="1" target="nOJYXH8r22cCcYCmpwuw-19" edge="1">
          <mxGeometry width="100" height="100" relative="1" as="geometry">
            <mxPoint x="630" y="620" as="sourcePoint" />
            <mxPoint x="480" y="370" as="targetPoint" />
          </mxGeometry>
        </mxCell>
        <mxCell id="YVMlVOvHzLtNW060m_QN-21" value="" style="endArrow=none;html=1;rounded=0;fontFamily=Helvetica;fontSize=12;fontColor=default;fontStyle=4;entryX=0;entryY=1;entryDx=0;entryDy=0;exitX=0.75;exitY=0;exitDx=0;exitDy=0;" parent="1" source="nOJYXH8r22cCcYCmpwuw-1" target="YVMlVOvHzLtNW060m_QN-19" edge="1">
          <mxGeometry relative="1" as="geometry">
            <mxPoint x="690" y="129" as="sourcePoint" />
            <mxPoint x="850" y="129" as="targetPoint" />
          </mxGeometry>
        </mxCell>
        <mxCell id="nOJYXH8r22cCcYCmpwuw-22" value="Ticket_ID" style="ellipse;whiteSpace=wrap;html=1;align=center;fontStyle=4;" parent="1" vertex="1">
          <mxGeometry x="380" y="690" width="100" height="40" as="geometry" />
        </mxCell>
        <mxCell id="YVMlVOvHzLtNW060m_QN-22" value="First Name" style="ellipse;whiteSpace=wrap;html=1;align=center;" parent="1" vertex="1">
          <mxGeometry x="790" y="220" width="100" height="40" as="geometry" />
        </mxCell>
        <mxCell id="nOJYXH8r22cCcYCmpwuw-23" value="Issue description" style="ellipse;whiteSpace=wrap;html=1;align=center;" parent="1" vertex="1">
          <mxGeometry x="400" y="730" width="100" height="40" as="geometry" />
        </mxCell>
        <mxCell id="YVMlVOvHzLtNW060m_QN-23" value="" style="endArrow=none;html=1;rounded=0;fontFamily=Helvetica;fontSize=12;fontColor=default;fontStyle=4;entryX=0;entryY=0.5;entryDx=0;entryDy=0;exitX=1;exitY=1;exitDx=0;exitDy=0;" parent="1" source="YVMlVOvHzLtNW060m_QN-2" target="YVMlVOvHzLtNW060m_QN-22" edge="1">
          <mxGeometry relative="1" as="geometry">
            <mxPoint x="750" y="230" as="sourcePoint" />
            <mxPoint x="750" y="240" as="targetPoint" />
          </mxGeometry>
        </mxCell>
        <mxCell id="YVMlVOvHzLtNW060m_QN-24" value="Total Points" style="ellipse;whiteSpace=wrap;html=1;align=center;" parent="1" vertex="1">
          <mxGeometry x="770" y="490" width="100" height="40" as="geometry" />
        </mxCell>
        <mxCell id="nOJYXH8r22cCcYCmpwuw-24" value="Status" style="ellipse;whiteSpace=wrap;html=1;align=center;" parent="1" vertex="1">
          <mxGeometry x="590" y="760" width="100" height="40" as="geometry" />
        </mxCell>
        <mxCell id="YVMlVOvHzLtNW060m_QN-25" value="Type" style="ellipse;whiteSpace=wrap;html=1;align=center;" parent="1" vertex="1">
          <mxGeometry x="770" y="390" width="100" height="40" as="geometry" />
        </mxCell>
        <mxCell id="nOJYXH8r22cCcYCmpwuw-25" value="Priority level" style="ellipse;whiteSpace=wrap;html=1;align=center;" parent="1" vertex="1">
          <mxGeometry x="485" y="760" width="100" height="40" as="geometry" />
        </mxCell>
        <mxCell id="YVMlVOvHzLtNW060m_QN-27" value="Line Balance" style="ellipse;whiteSpace=wrap;html=1;align=center;" parent="1" vertex="1">
          <mxGeometry x="770" y="350" width="100" height="40" as="geometry" />
        </mxCell>
        <mxCell id="nOJYXH8r22cCcYCmpwuw-26" value="" style="endArrow=none;html=1;rounded=0;exitX=1;exitY=0.5;exitDx=0;exitDy=0;" parent="1" source="nOJYXH8r22cCcYCmpwuw-22" edge="1">
          <mxGeometry relative="1" as="geometry">
            <mxPoint x="445.43856955891215" y="764.1330860809926" as="sourcePoint" />
            <mxPoint x="550" y="710" as="targetPoint" />
          </mxGeometry>
        </mxCell>
        <mxCell id="YVMlVOvHzLtNW060m_QN-28" value="Start Date" style="ellipse;whiteSpace=wrap;html=1;align=center;" parent="1" vertex="1">
          <mxGeometry x="680" y="275" width="100" height="40" as="geometry" />
        </mxCell>
        <mxCell id="nOJYXH8r22cCcYCmpwuw-27" value="" style="endArrow=none;html=1;rounded=0;exitX=0.75;exitY=1;exitDx=0;exitDy=0;" parent="1" source="nOJYXH8r22cCcYCmpwuw-19" target="nOJYXH8r22cCcYCmpwuw-24" edge="1">
          <mxGeometry relative="1" as="geometry">
            <mxPoint x="660" y="709.33" as="sourcePoint" />
            <mxPoint x="690" y="709" as="targetPoint" />
          </mxGeometry>
        </mxCell>
        <mxCell id="YVMlVOvHzLtNW060m_QN-29" value="Status" style="ellipse;whiteSpace=wrap;html=1;align=center;" parent="1" vertex="1">
          <mxGeometry x="770" y="430" width="100" height="40" as="geometry" />
        </mxCell>
        <mxCell id="nOJYXH8r22cCcYCmpwuw-28" value="" style="endArrow=none;html=1;rounded=0;entryX=0;entryY=1;entryDx=0;entryDy=0;exitX=1;exitY=0.5;exitDx=0;exitDy=0;" parent="1" target="nOJYXH8r22cCcYCmpwuw-19" edge="1" source="nOJYXH8r22cCcYCmpwuw-23">
          <mxGeometry relative="1" as="geometry">
            <mxPoint x="510" y="790" as="sourcePoint" />
            <mxPoint x="670" y="790" as="targetPoint" />
          </mxGeometry>
        </mxCell>
        <mxCell id="YVMlVOvHzLtNW060m_QN-30" value="Mobile Number" style="ellipse;whiteSpace=wrap;html=1;align=center;fontStyle=4;strokeColor=default;verticalAlign=middle;fontFamily=Helvetica;fontSize=12;fontColor=default;fillColor=default;" parent="1" vertex="1">
          <mxGeometry x="560" y="360" width="100" height="40" as="geometry" />
        </mxCell>
        <mxCell id="nOJYXH8r22cCcYCmpwuw-29" value="" style="endArrow=none;html=1;rounded=0;entryX=0.25;entryY=1;entryDx=0;entryDy=0;exitX=0.5;exitY=0;exitDx=0;exitDy=0;" parent="1" source="nOJYXH8r22cCcYCmpwuw-25" target="nOJYXH8r22cCcYCmpwuw-19" edge="1">
          <mxGeometry relative="1" as="geometry">
            <mxPoint x="520" y="800" as="sourcePoint" />
            <mxPoint x="560" y="740" as="targetPoint" />
          </mxGeometry>
        </mxCell>
        <mxCell id="YVMlVOvHzLtNW060m_QN-31" value="" style="endArrow=none;html=1;rounded=0;fontFamily=Helvetica;fontSize=12;fontColor=default;fontStyle=4;exitX=0.5;exitY=1;exitDx=0;exitDy=0;entryX=0.25;entryY=0;entryDx=0;entryDy=0;" parent="1" source="YVMlVOvHzLtNW060m_QN-30" target="nOJYXH8r22cCcYCmpwuw-3" edge="1">
          <mxGeometry relative="1" as="geometry">
            <mxPoint x="470" y="419" as="sourcePoint" />
            <mxPoint x="630" y="419" as="targetPoint" />
          </mxGeometry>
        </mxCell>
        <mxCell id="nOJYXH8r22cCcYCmpwuw-31" value="" style="endArrow=none;html=1;rounded=0;entryX=0.5;entryY=0;entryDx=0;entryDy=0;exitX=0.638;exitY=1;exitDx=0;exitDy=0;exitPerimeter=0;" parent="1" edge="1" target="nOJYXH8r22cCcYCmpwuw-13" source="nOJYXH8r22cCcYCmpwuw-9">
          <mxGeometry relative="1" as="geometry">
            <mxPoint x="-327.5" y="324.33000000000004" as="sourcePoint" />
            <mxPoint x="-287.5" y="325" as="targetPoint" />
            <Array as="points">
              <mxPoint x="10" y="350" />
            </Array>
          </mxGeometry>
        </mxCell>
        <mxCell id="YVMlVOvHzLtNW060m_QN-32" value="" style="endArrow=none;html=1;rounded=0;fontFamily=Helvetica;fontSize=12;fontColor=default;fontStyle=4;entryX=0;entryY=1;entryDx=0;entryDy=0;exitX=0.75;exitY=0;exitDx=0;exitDy=0;" parent="1" source="nOJYXH8r22cCcYCmpwuw-3" target="YVMlVOvHzLtNW060m_QN-27" edge="1">
          <mxGeometry relative="1" as="geometry">
            <mxPoint x="660" y="419" as="sourcePoint" />
            <mxPoint x="820" y="419" as="targetPoint" />
          </mxGeometry>
        </mxCell>
        <mxCell id="nOJYXH8r22cCcYCmpwuw-32" value="" style="endArrow=none;html=1;rounded=0;entryX=1;entryY=0.75;entryDx=0;entryDy=0;exitX=0.5;exitY=1;exitDx=0;exitDy=0;" parent="1" source="F2KtdEp4NuPGQQRKZKPt-5" target="F2KtdEp4NuPGQQRKZKPt-3" edge="1">
          <mxGeometry relative="1" as="geometry">
            <mxPoint x="210" y="240" as="sourcePoint" />
            <mxPoint x="370" y="240" as="targetPoint" />
          </mxGeometry>
        </mxCell>
        <mxCell id="YVMlVOvHzLtNW060m_QN-33" value="" style="endArrow=none;html=1;rounded=0;fontFamily=Helvetica;fontSize=12;fontColor=default;fontStyle=4;exitX=1;exitY=0.25;exitDx=0;exitDy=0;entryX=0;entryY=1;entryDx=0;entryDy=0;" parent="1" source="nOJYXH8r22cCcYCmpwuw-3" target="YVMlVOvHzLtNW060m_QN-25" edge="1">
          <mxGeometry relative="1" as="geometry">
            <mxPoint x="570" y="440" as="sourcePoint" />
            <mxPoint x="730" y="440" as="targetPoint" />
          </mxGeometry>
        </mxCell>
        <mxCell id="YVMlVOvHzLtNW060m_QN-34" value="" style="endArrow=none;html=1;rounded=0;fontFamily=Helvetica;fontSize=12;fontColor=default;fontStyle=4;exitX=0.39;exitY=0.025;exitDx=0;exitDy=0;entryX=0;entryY=1;entryDx=0;entryDy=0;exitPerimeter=0;" parent="1" source="nOJYXH8r22cCcYCmpwuw-3" target="YVMlVOvHzLtNW060m_QN-28" edge="1">
          <mxGeometry relative="1" as="geometry">
            <mxPoint x="560" y="499.5" as="sourcePoint" />
            <mxPoint x="720" y="499.5" as="targetPoint" />
          </mxGeometry>
        </mxCell>
        <mxCell id="YVMlVOvHzLtNW060m_QN-35" value="" style="endArrow=none;html=1;rounded=0;fontFamily=Helvetica;fontSize=12;fontColor=default;fontStyle=4;exitX=1;exitY=0.5;exitDx=0;exitDy=0;entryX=0.048;entryY=0.32;entryDx=0;entryDy=0;entryPerimeter=0;" parent="1" source="nOJYXH8r22cCcYCmpwuw-3" target="YVMlVOvHzLtNW060m_QN-29" edge="1">
          <mxGeometry relative="1" as="geometry">
            <mxPoint x="500" y="510" as="sourcePoint" />
            <mxPoint x="660" y="510" as="targetPoint" />
          </mxGeometry>
        </mxCell>
        <mxCell id="YVMlVOvHzLtNW060m_QN-36" value="" style="endArrow=none;html=1;rounded=0;fontFamily=Helvetica;fontSize=12;fontColor=default;fontStyle=4;entryX=1;entryY=0.75;entryDx=0;entryDy=0;exitX=0.083;exitY=0.216;exitDx=0;exitDy=0;entryPerimeter=0;exitPerimeter=0;" parent="1" source="YVMlVOvHzLtNW060m_QN-24" target="nOJYXH8r22cCcYCmpwuw-3" edge="1">
          <mxGeometry relative="1" as="geometry">
            <mxPoint x="823.8000000000002" y="519.96" as="sourcePoint" />
            <mxPoint x="670.0000000000002" y="459.99999999999994" as="targetPoint" />
          </mxGeometry>
        </mxCell>
        <mxCell id="YVMlVOvHzLtNW060m_QN-37" value="Exchanges points for" style="shape=rhombus;perimeter=rhombusPerimeter;whiteSpace=wrap;html=1;align=center;rotation=0;direction=west;" parent="1" vertex="1">
          <mxGeometry x="400" y="450" width="135" height="60" as="geometry" />
        </mxCell>
        <mxCell id="YVMlVOvHzLtNW060m_QN-46" value="Voucher" style="rounded=1;arcSize=10;whiteSpace=wrap;html=1;align=center;" parent="1" vertex="1">
          <mxGeometry x="250" y="520" width="100" height="40" as="geometry" />
        </mxCell>
        <mxCell id="lE3XEgPGlZlf8RJ6UCjR-2" value="Makes" style="shape=rhombus;perimeter=rhombusPerimeter;whiteSpace=wrap;html=1;align=center;" parent="1" vertex="1">
          <mxGeometry x="-80" y="240" width="75" height="40" as="geometry" />
        </mxCell>
        <mxCell id="YVMlVOvHzLtNW060m_QN-48" value="Service Plan" style="rounded=1;arcSize=10;whiteSpace=wrap;html=1;align=center;" parent="1" vertex="1">
          <mxGeometry x="-157.5" y="970" width="100" height="40" as="geometry" />
        </mxCell>
        <mxCell id="YVMlVOvHzLtNW060m_QN-63" value="SMS Number" style="ellipse;whiteSpace=wrap;html=1;align=center;" parent="1" vertex="1">
          <mxGeometry x="-40" y="1060" width="100" height="40" as="geometry" />
        </mxCell>
        <mxCell id="YVMlVOvHzLtNW060m_QN-64" value="Call Minutes" style="ellipse;whiteSpace=wrap;html=1;align=center;" parent="1" vertex="1">
          <mxGeometry x="-140" y="1060" width="100" height="40" as="geometry" />
        </mxCell>
        <mxCell id="YVMlVOvHzLtNW060m_QN-65" value="Internet GB Size" style="ellipse;whiteSpace=wrap;html=1;align=center;" parent="1" vertex="1">
          <mxGeometry x="-240" y="1060" width="100" height="40" as="geometry" />
        </mxCell>
        <mxCell id="YVMlVOvHzLtNW060m_QN-66" value="Price" style="ellipse;whiteSpace=wrap;html=1;align=center;" parent="1" vertex="1">
          <mxGeometry x="-297.5" y="950" width="100" height="40" as="geometry" />
        </mxCell>
        <mxCell id="YVMlVOvHzLtNW060m_QN-67" value="Description" style="ellipse;whiteSpace=wrap;html=1;align=center;" parent="1" vertex="1">
          <mxGeometry x="-307.5" y="990" width="100" height="40" as="geometry" />
        </mxCell>
        <mxCell id="YVMlVOvHzLtNW060m_QN-68" value="Name" style="ellipse;whiteSpace=wrap;html=1;align=center;" parent="1" vertex="1">
          <mxGeometry x="-287.5" y="910" width="100" height="40" as="geometry" />
        </mxCell>
        <mxCell id="YVMlVOvHzLtNW060m_QN-69" value="" style="endArrow=none;html=1;rounded=0;fontFamily=Helvetica;fontSize=12;fontColor=default;fontStyle=4;entryX=0.5;entryY=0;entryDx=0;entryDy=0;exitX=1;exitY=0.5;exitDx=0;exitDy=0;" parent="1" source="YVMlVOvHzLtNW060m_QN-48" target="YVMlVOvHzLtNW060m_QN-63" edge="1">
          <mxGeometry relative="1" as="geometry">
            <mxPoint x="-57.5" y="980" as="sourcePoint" />
            <mxPoint x="102.5" y="980" as="targetPoint" />
          </mxGeometry>
        </mxCell>
        <mxCell id="YVMlVOvHzLtNW060m_QN-70" value="" style="endArrow=none;html=1;rounded=0;fontFamily=Helvetica;fontSize=12;fontColor=default;fontStyle=4;entryX=0.5;entryY=0;entryDx=0;entryDy=0;exitX=0.69;exitY=1.1;exitDx=0;exitDy=0;exitPerimeter=0;" parent="1" source="YVMlVOvHzLtNW060m_QN-48" target="YVMlVOvHzLtNW060m_QN-64" edge="1">
          <mxGeometry relative="1" as="geometry">
            <mxPoint x="-107.5" y="1020" as="sourcePoint" />
            <mxPoint x="-47.5" y="1020" as="targetPoint" />
          </mxGeometry>
        </mxCell>
        <mxCell id="YVMlVOvHzLtNW060m_QN-72" value="" style="endArrow=none;html=1;rounded=0;fontFamily=Helvetica;fontSize=12;fontColor=default;fontStyle=4;entryX=0.5;entryY=0;entryDx=0;entryDy=0;exitX=0.42;exitY=1.05;exitDx=0;exitDy=0;exitPerimeter=0;" parent="1" source="YVMlVOvHzLtNW060m_QN-48" target="YVMlVOvHzLtNW060m_QN-65" edge="1">
          <mxGeometry relative="1" as="geometry">
            <mxPoint x="-117.5" y="1020" as="sourcePoint" />
            <mxPoint x="-57.5" y="1020" as="targetPoint" />
          </mxGeometry>
        </mxCell>
        <mxCell id="YVMlVOvHzLtNW060m_QN-74" value="" style="endArrow=none;html=1;rounded=0;fontFamily=Helvetica;fontSize=12;fontColor=default;fontStyle=4;entryX=0.25;entryY=0;entryDx=0;entryDy=0;exitX=1;exitY=1;exitDx=0;exitDy=0;" parent="1" target="YVMlVOvHzLtNW060m_QN-48" edge="1" source="YVMlVOvHzLtNW060m_QN-68">
          <mxGeometry relative="1" as="geometry">
            <mxPoint x="-267.5" y="949.5" as="sourcePoint" />
            <mxPoint x="-107.5" y="949.5" as="targetPoint" />
          </mxGeometry>
        </mxCell>
        <mxCell id="YVMlVOvHzLtNW060m_QN-75" value="" style="endArrow=none;html=1;rounded=0;fontFamily=Helvetica;fontSize=12;fontColor=default;fontStyle=4;entryX=0;entryY=1;entryDx=0;entryDy=0;exitX=1;exitY=0.5;exitDx=0;exitDy=0;" parent="1" source="YVMlVOvHzLtNW060m_QN-67" target="YVMlVOvHzLtNW060m_QN-48" edge="1">
          <mxGeometry relative="1" as="geometry">
            <mxPoint x="-292.5" y="1004.75" as="sourcePoint" />
            <mxPoint x="-157.5" y="1015.25" as="targetPoint" />
          </mxGeometry>
        </mxCell>
        <mxCell id="YVMlVOvHzLtNW060m_QN-76" value="" style="endArrow=none;html=1;rounded=0;fontFamily=Helvetica;fontSize=12;fontColor=default;fontStyle=4;entryX=0;entryY=0.25;entryDx=0;entryDy=0;exitX=1;exitY=0.5;exitDx=0;exitDy=0;" parent="1" source="YVMlVOvHzLtNW060m_QN-66" target="YVMlVOvHzLtNW060m_QN-48" edge="1">
          <mxGeometry relative="1" as="geometry">
            <mxPoint x="-295" y="969.5" as="sourcePoint" />
            <mxPoint x="-160" y="980" as="targetPoint" />
          </mxGeometry>
        </mxCell>
        <mxCell id="YVMlVOvHzLtNW060m_QN-77" value="Plan_ID" style="ellipse;whiteSpace=wrap;html=1;align=center;fontStyle=4;strokeColor=default;verticalAlign=middle;fontFamily=Helvetica;fontSize=12;fontColor=default;fillColor=default;" parent="1" vertex="1">
          <mxGeometry x="-307.5" y="1030" width="100" height="40" as="geometry" />
        </mxCell>
        <mxCell id="YVMlVOvHzLtNW060m_QN-79" value="Subscribes" style="shape=rhombus;perimeter=rhombusPerimeter;whiteSpace=wrap;html=1;align=center;rotation=0;" parent="1" vertex="1">
          <mxGeometry x="170" y="680" width="120" height="60" as="geometry" />
        </mxCell>
        <mxCell id="YVMlVOvHzLtNW060m_QN-80" value="Status" style="ellipse;whiteSpace=wrap;html=1;align=center;" parent="1" vertex="1">
          <mxGeometry x="30" y="660" width="100" height="40" as="geometry" />
        </mxCell>
        <mxCell id="YVMlVOvHzLtNW060m_QN-81" value="Date" style="ellipse;whiteSpace=wrap;html=1;align=center;" parent="1" vertex="1">
          <mxGeometry x="-90" y="660" width="100" height="40" as="geometry" />
        </mxCell>
        <mxCell id="YVMlVOvHzLtNW060m_QN-82" value="" style="endArrow=none;html=1;rounded=0;fontFamily=Helvetica;fontSize=12;fontColor=default;fontStyle=4;entryX=0.25;entryY=0;entryDx=0;entryDy=0;exitX=0.5;exitY=1;exitDx=0;exitDy=0;" parent="1" source="YVMlVOvHzLtNW060m_QN-81" target="y26kRBOYcE8LaACGCFeC-1" edge="1">
          <mxGeometry relative="1" as="geometry">
            <mxPoint x="-250" y="820" as="sourcePoint" />
            <mxPoint x="-90" y="820" as="targetPoint" />
          </mxGeometry>
        </mxCell>
        <mxCell id="YVMlVOvHzLtNW060m_QN-83" value="" style="endArrow=none;html=1;rounded=0;fontFamily=Helvetica;fontSize=12;fontColor=default;fontStyle=4;entryX=0.5;entryY=0;entryDx=0;entryDy=0;exitX=0.5;exitY=1;exitDx=0;exitDy=0;" parent="1" source="YVMlVOvHzLtNW060m_QN-80" target="y26kRBOYcE8LaACGCFeC-1" edge="1">
          <mxGeometry relative="1" as="geometry">
            <mxPoint x="-110" y="800" as="sourcePoint" />
            <mxPoint x="-50" y="820" as="targetPoint" />
          </mxGeometry>
        </mxCell>
        <mxCell id="YVMlVOvHzLtNW060m_QN-93" value="" style="endArrow=none;html=1;rounded=0;entryX=0.5;entryY=0;entryDx=0;entryDy=0;" parent="1" target="nOJYXH8r22cCcYCmpwuw-1" edge="1">
          <mxGeometry relative="1" as="geometry">
            <mxPoint x="680" y="169" as="sourcePoint" />
            <mxPoint x="720" y="190" as="targetPoint" />
          </mxGeometry>
        </mxCell>
        <mxCell id="nOJYXH8r22cCcYCmpwuw-1" value="Customer&lt;div&gt;Prof&lt;span style=&quot;background-color: initial;&quot;&gt;ile&lt;/span&gt;&lt;/div&gt;" style="rounded=1;arcSize=10;whiteSpace=wrap;html=1;align=center;" parent="1" vertex="1">
          <mxGeometry x="630" y="130" width="100" height="40" as="geometry" />
        </mxCell>
        <mxCell id="1tl5mqjxRXm8i3WzVXRc-3" value="" style="endArrow=none;html=1;rounded=0;exitX=0;exitY=0.75;exitDx=0;exitDy=0;entryX=0.94;entryY=0.25;entryDx=0;entryDy=0;entryPerimeter=0;" parent="1" source="YVMlVOvHzLtNW060m_QN-46" target="1tl5mqjxRXm8i3WzVXRc-4" edge="1">
          <mxGeometry width="50" height="50" relative="1" as="geometry">
            <mxPoint x="370" y="570" as="sourcePoint" />
            <mxPoint x="310" y="590" as="targetPoint" />
          </mxGeometry>
        </mxCell>
        <mxCell id="1tl5mqjxRXm8i3WzVXRc-4" value="Voucher_ID" style="ellipse;whiteSpace=wrap;html=1;align=center;fontStyle=4;" parent="1" vertex="1">
          <mxGeometry x="140" y="560" width="100" height="40" as="geometry" />
        </mxCell>
        <mxCell id="1tl5mqjxRXm8i3WzVXRc-14" value="" style="edgeStyle=entityRelationEdgeStyle;fontSize=12;html=1;endArrow=ERzeroToMany;endFill=1;rounded=0;entryX=1;entryY=0.5;entryDx=0;entryDy=0;" parent="1" source="YVMlVOvHzLtNW060m_QN-37" target="YVMlVOvHzLtNW060m_QN-46" edge="1">
          <mxGeometry width="100" height="100" relative="1" as="geometry">
            <mxPoint x="500" y="485" as="sourcePoint" />
            <mxPoint x="400" y="515" as="targetPoint" />
          </mxGeometry>
        </mxCell>
        <mxCell id="1tl5mqjxRXm8i3WzVXRc-15" value="" style="edgeStyle=entityRelationEdgeStyle;fontSize=12;html=1;endArrow=ERzeroToOne;endFill=1;rounded=0;exitX=0.018;exitY=0.513;exitDx=0;exitDy=0;exitPerimeter=0;entryX=0;entryY=0.5;entryDx=0;entryDy=0;" parent="1" source="YVMlVOvHzLtNW060m_QN-37" target="nOJYXH8r22cCcYCmpwuw-3" edge="1">
          <mxGeometry width="100" height="100" relative="1" as="geometry">
            <mxPoint x="510" y="540" as="sourcePoint" />
            <mxPoint x="610" y="440" as="targetPoint" />
          </mxGeometry>
        </mxCell>
        <mxCell id="1tl5mqjxRXm8i3WzVXRc-16" value="Voucher Value" style="ellipse;whiteSpace=wrap;html=1;align=center;" parent="1" vertex="1">
          <mxGeometry x="225" y="590" width="100" height="40" as="geometry" />
        </mxCell>
        <mxCell id="1tl5mqjxRXm8i3WzVXRc-17" value="" style="endArrow=none;html=1;rounded=0;exitX=0.532;exitY=-0.008;exitDx=0;exitDy=0;exitPerimeter=0;entryX=0.25;entryY=1;entryDx=0;entryDy=0;" parent="1" source="1tl5mqjxRXm8i3WzVXRc-16" target="YVMlVOvHzLtNW060m_QN-46" edge="1">
          <mxGeometry width="50" height="50" relative="1" as="geometry">
            <mxPoint x="360" y="620" as="sourcePoint" />
            <mxPoint x="410" y="570" as="targetPoint" />
          </mxGeometry>
        </mxCell>
        <mxCell id="1tl5mqjxRXm8i3WzVXRc-18" value="Expire date" style="ellipse;whiteSpace=wrap;html=1;align=center;" parent="1" vertex="1">
          <mxGeometry x="325" y="570" width="100" height="40" as="geometry" />
        </mxCell>
        <mxCell id="1tl5mqjxRXm8i3WzVXRc-19" value="Points required" style="ellipse;whiteSpace=wrap;html=1;align=center;" parent="1" vertex="1">
          <mxGeometry x="210" y="460" width="100" height="40" as="geometry" />
        </mxCell>
        <mxCell id="1tl5mqjxRXm8i3WzVXRc-20" value="" style="endArrow=none;html=1;rounded=0;exitX=0.554;exitY=1.03;exitDx=0;exitDy=0;exitPerimeter=0;entryX=0.31;entryY=-0.02;entryDx=0;entryDy=0;entryPerimeter=0;" parent="1" source="1tl5mqjxRXm8i3WzVXRc-19" target="YVMlVOvHzLtNW060m_QN-46" edge="1">
          <mxGeometry width="50" height="50" relative="1" as="geometry">
            <mxPoint x="370" y="640" as="sourcePoint" />
            <mxPoint x="420" y="590" as="targetPoint" />
          </mxGeometry>
        </mxCell>
        <mxCell id="1tl5mqjxRXm8i3WzVXRc-21" value="" style="endArrow=none;html=1;rounded=0;exitX=0.662;exitY=1.01;exitDx=0;exitDy=0;exitPerimeter=0;entryX=0.222;entryY=0.07;entryDx=0;entryDy=0;entryPerimeter=0;" parent="1" source="YVMlVOvHzLtNW060m_QN-46" target="1tl5mqjxRXm8i3WzVXRc-18" edge="1">
          <mxGeometry width="50" height="50" relative="1" as="geometry">
            <mxPoint x="370" y="640" as="sourcePoint" />
            <mxPoint x="420" y="590" as="targetPoint" />
          </mxGeometry>
        </mxCell>
        <mxCell id="1tl5mqjxRXm8i3WzVXRc-25" value="Shop" style="rounded=1;arcSize=10;whiteSpace=wrap;html=1;align=center;" parent="1" vertex="1">
          <mxGeometry x="-240" y="640" width="100" height="40" as="geometry" />
        </mxCell>
        <mxCell id="1tl5mqjxRXm8i3WzVXRc-26" value="Redeemed at" style="shape=rhombus;perimeter=rhombusPerimeter;whiteSpace=wrap;html=1;align=center;" parent="1" vertex="1">
          <mxGeometry x="-50" y="540" width="120" height="60" as="geometry" />
        </mxCell>
        <mxCell id="1tl5mqjxRXm8i3WzVXRc-28" value="" style="edgeStyle=entityRelationEdgeStyle;fontSize=12;html=1;endArrow=ERmandOne;rounded=0;exitX=0.048;exitY=0.507;exitDx=0;exitDy=0;entryX=1;entryY=0.5;entryDx=0;entryDy=0;exitPerimeter=0;" parent="1" source="1tl5mqjxRXm8i3WzVXRc-26" target="1tl5mqjxRXm8i3WzVXRc-25" edge="1">
          <mxGeometry width="100" height="100" relative="1" as="geometry">
            <mxPoint x="-159.99999999999977" y="640" as="sourcePoint" />
            <mxPoint x="40" y="610" as="targetPoint" />
            <Array as="points">
              <mxPoint x="-60" y="598.68" />
              <mxPoint x="-100" y="590" />
              <mxPoint x="-100" y="560" />
            </Array>
          </mxGeometry>
        </mxCell>
        <mxCell id="1tl5mqjxRXm8i3WzVXRc-29" value="" style="edgeStyle=entityRelationEdgeStyle;fontSize=12;html=1;endArrow=ERzeroToMany;endFill=1;rounded=0;entryX=0;entryY=0.25;entryDx=0;entryDy=0;exitX=1;exitY=0.5;exitDx=0;exitDy=0;" parent="1" source="1tl5mqjxRXm8i3WzVXRc-26" target="YVMlVOvHzLtNW060m_QN-46" edge="1">
          <mxGeometry width="100" height="100" relative="1" as="geometry">
            <mxPoint x="50" y="630" as="sourcePoint" />
            <mxPoint x="150" y="530" as="targetPoint" />
          </mxGeometry>
        </mxCell>
        <mxCell id="1tl5mqjxRXm8i3WzVXRc-30" value="Shop_ID" style="ellipse;whiteSpace=wrap;html=1;align=center;fontStyle=4;" parent="1" vertex="1">
          <mxGeometry x="-240" y="710" width="100" height="40" as="geometry" />
        </mxCell>
        <mxCell id="1tl5mqjxRXm8i3WzVXRc-31" value="Shop name" style="ellipse;whiteSpace=wrap;html=1;align=center;" parent="1" vertex="1">
          <mxGeometry x="-240" y="570" width="100" height="40" as="geometry" />
        </mxCell>
        <mxCell id="1tl5mqjxRXm8i3WzVXRc-32" value="" style="endArrow=none;html=1;rounded=0;exitX=0.5;exitY=0;exitDx=0;exitDy=0;entryX=0.5;entryY=1;entryDx=0;entryDy=0;" parent="1" source="1tl5mqjxRXm8i3WzVXRc-25" target="1tl5mqjxRXm8i3WzVXRc-31" edge="1">
          <mxGeometry width="50" height="50" relative="1" as="geometry">
            <mxPoint x="90" y="690" as="sourcePoint" />
            <mxPoint x="140" y="640" as="targetPoint" />
          </mxGeometry>
        </mxCell>
        <mxCell id="1tl5mqjxRXm8i3WzVXRc-33" value="" style="endArrow=none;html=1;rounded=0;exitX=0.5;exitY=0;exitDx=0;exitDy=0;entryX=0.5;entryY=1;entryDx=0;entryDy=0;" parent="1" source="1tl5mqjxRXm8i3WzVXRc-30" target="1tl5mqjxRXm8i3WzVXRc-25" edge="1">
          <mxGeometry width="50" height="50" relative="1" as="geometry">
            <mxPoint x="-150" y="650" as="sourcePoint" />
            <mxPoint x="-150" y="620" as="targetPoint" />
          </mxGeometry>
        </mxCell>
        <mxCell id="1tl5mqjxRXm8i3WzVXRc-34" value="" style="endArrow=none;html=1;rounded=0;entryX=0;entryY=0.5;entryDx=0;entryDy=0;" parent="1" source="1tl5mqjxRXm8i3WzVXRc-35" target="1tl5mqjxRXm8i3WzVXRc-25" edge="1">
          <mxGeometry width="50" height="50" relative="1" as="geometry">
            <mxPoint x="-290" y="660" as="sourcePoint" />
            <mxPoint x="-270" y="640" as="targetPoint" />
          </mxGeometry>
        </mxCell>
        <mxCell id="1tl5mqjxRXm8i3WzVXRc-36" value="" style="endArrow=none;html=1;rounded=0;entryX=0;entryY=0.5;entryDx=0;entryDy=0;" parent="1" target="1tl5mqjxRXm8i3WzVXRc-35" edge="1">
          <mxGeometry width="50" height="50" relative="1" as="geometry">
            <mxPoint x="-290" y="660" as="sourcePoint" />
            <mxPoint x="-210" y="660" as="targetPoint" />
          </mxGeometry>
        </mxCell>
        <mxCell id="1tl5mqjxRXm8i3WzVXRc-35" value="&lt;b&gt;d&lt;/b&gt;" style="ellipse;whiteSpace=wrap;html=1;aspect=fixed;" parent="1" vertex="1">
          <mxGeometry x="-300" y="645" width="30" height="30" as="geometry" />
        </mxCell>
        <mxCell id="1tl5mqjxRXm8i3WzVXRc-37" value="Physical Shop" style="rounded=1;arcSize=10;whiteSpace=wrap;html=1;align=center;" parent="1" vertex="1">
          <mxGeometry x="-475" y="540" width="100" height="40" as="geometry" />
        </mxCell>
        <mxCell id="1tl5mqjxRXm8i3WzVXRc-38" value="" style="endArrow=none;html=1;rounded=0;exitX=1;exitY=0.5;exitDx=0;exitDy=0;entryX=0;entryY=0;entryDx=0;entryDy=0;" parent="1" source="1tl5mqjxRXm8i3WzVXRc-37" target="1tl5mqjxRXm8i3WzVXRc-35" edge="1">
          <mxGeometry width="50" height="50" relative="1" as="geometry">
            <mxPoint x="-320" y="690" as="sourcePoint" />
            <mxPoint x="-270" y="640" as="targetPoint" />
          </mxGeometry>
        </mxCell>
        <mxCell id="1tl5mqjxRXm8i3WzVXRc-39" value="E-Shop" style="rounded=1;arcSize=10;whiteSpace=wrap;html=1;align=center;" parent="1" vertex="1">
          <mxGeometry x="-475" y="680" width="100" height="40" as="geometry" />
        </mxCell>
        <mxCell id="1tl5mqjxRXm8i3WzVXRc-40" value="" style="endArrow=none;html=1;rounded=0;exitX=1;exitY=0.5;exitDx=0;exitDy=0;entryX=0;entryY=1;entryDx=0;entryDy=0;" parent="1" source="1tl5mqjxRXm8i3WzVXRc-39" target="1tl5mqjxRXm8i3WzVXRc-35" edge="1">
          <mxGeometry width="50" height="50" relative="1" as="geometry">
            <mxPoint x="-320" y="690" as="sourcePoint" />
            <mxPoint x="-270" y="640" as="targetPoint" />
          </mxGeometry>
        </mxCell>
        <mxCell id="1tl5mqjxRXm8i3WzVXRc-41" value="&lt;i style=&quot;font-size: 29px;&quot;&gt;U&lt;/i&gt;" style="text;html=1;align=center;verticalAlign=middle;resizable=0;points=[];autosize=1;strokeColor=none;fillColor=none;rotation=125;fontSize=29;fontFamily=Helvetica;textOpacity=60;spacing=2;" parent="1" vertex="1">
          <mxGeometry x="-350" y="585" width="40" height="50" as="geometry" />
        </mxCell>
        <mxCell id="1tl5mqjxRXm8i3WzVXRc-45" value="&lt;i style=&quot;font-size: 29px;&quot;&gt;U&lt;/i&gt;" style="text;html=1;align=center;verticalAlign=middle;resizable=0;points=[];autosize=1;strokeColor=none;fillColor=none;rotation=60;fontSize=29;fontFamily=Helvetica;textOpacity=60;spacing=2;" parent="1" vertex="1">
          <mxGeometry x="-360" y="660" width="40" height="50" as="geometry" />
        </mxCell>
        <mxCell id="1tl5mqjxRXm8i3WzVXRc-47" value="Address" style="ellipse;whiteSpace=wrap;html=1;align=center;" parent="1" vertex="1">
          <mxGeometry x="-570" y="480" width="100" height="40" as="geometry" />
        </mxCell>
        <mxCell id="1tl5mqjxRXm8i3WzVXRc-48" value="Working hours" style="ellipse;whiteSpace=wrap;html=1;align=center;" parent="1" vertex="1">
          <mxGeometry x="-440" y="470" width="100" height="40" as="geometry" />
        </mxCell>
        <mxCell id="1tl5mqjxRXm8i3WzVXRc-49" value="Website URL" style="ellipse;whiteSpace=wrap;html=1;align=center;" parent="1" vertex="1">
          <mxGeometry x="-610" y="690" width="100" height="40" as="geometry" />
        </mxCell>
        <mxCell id="1tl5mqjxRXm8i3WzVXRc-50" value="Rating" style="ellipse;whiteSpace=wrap;html=1;align=center;" parent="1" vertex="1">
          <mxGeometry x="-530" y="740" width="100" height="40" as="geometry" />
        </mxCell>
        <mxCell id="1tl5mqjxRXm8i3WzVXRc-51" value="" style="endArrow=none;html=1;rounded=0;exitX=0;exitY=0;exitDx=0;exitDy=0;entryX=0.73;entryY=0.925;entryDx=0;entryDy=0;entryPerimeter=0;" parent="1" source="1tl5mqjxRXm8i3WzVXRc-37" target="1tl5mqjxRXm8i3WzVXRc-47" edge="1">
          <mxGeometry width="50" height="50" relative="1" as="geometry">
            <mxPoint x="-180" y="650" as="sourcePoint" />
            <mxPoint x="-130" y="600" as="targetPoint" />
          </mxGeometry>
        </mxCell>
        <mxCell id="1tl5mqjxRXm8i3WzVXRc-52" value="" style="endArrow=none;html=1;rounded=0;exitX=0.69;exitY=0.025;exitDx=0;exitDy=0;entryX=0.44;entryY=1.025;entryDx=0;entryDy=0;entryPerimeter=0;exitPerimeter=0;" parent="1" source="1tl5mqjxRXm8i3WzVXRc-37" target="1tl5mqjxRXm8i3WzVXRc-48" edge="1">
          <mxGeometry width="50" height="50" relative="1" as="geometry">
            <mxPoint x="-465" y="550" as="sourcePoint" />
            <mxPoint x="-487" y="527" as="targetPoint" />
          </mxGeometry>
        </mxCell>
        <mxCell id="1tl5mqjxRXm8i3WzVXRc-53" value="" style="endArrow=none;html=1;rounded=0;exitX=1;exitY=0.5;exitDx=0;exitDy=0;entryX=0;entryY=0.75;entryDx=0;entryDy=0;" parent="1" source="1tl5mqjxRXm8i3WzVXRc-49" target="1tl5mqjxRXm8i3WzVXRc-39" edge="1">
          <mxGeometry width="50" height="50" relative="1" as="geometry">
            <mxPoint x="-455" y="560" as="sourcePoint" />
            <mxPoint x="-477" y="537" as="targetPoint" />
          </mxGeometry>
        </mxCell>
        <mxCell id="1tl5mqjxRXm8i3WzVXRc-54" value="" style="endArrow=none;html=1;rounded=0;exitX=0.5;exitY=1;exitDx=0;exitDy=0;entryX=1;entryY=0;entryDx=0;entryDy=0;" parent="1" source="1tl5mqjxRXm8i3WzVXRc-39" target="1tl5mqjxRXm8i3WzVXRc-50" edge="1">
          <mxGeometry width="50" height="50" relative="1" as="geometry">
            <mxPoint x="-445" y="570" as="sourcePoint" />
            <mxPoint x="-467" y="547" as="targetPoint" />
          </mxGeometry>
        </mxCell>
        <mxCell id="q8fLoaQlOaHjxgoT106--1" value="benefit" style="rounded=0;whiteSpace=wrap;html=1;" parent="1" vertex="1">
          <mxGeometry x="1250" y="240" width="110" height="50" as="geometry" />
        </mxCell>
        <mxCell id="q8fLoaQlOaHjxgoT106--2" value="points" style="rounded=0;whiteSpace=wrap;html=1;" parent="1" vertex="1">
          <mxGeometry x="1050" y="500" width="120" height="60" as="geometry" />
        </mxCell>
        <mxCell id="q8fLoaQlOaHjxgoT106--3" value="offer" style="rounded=0;whiteSpace=wrap;html=1;" parent="1" vertex="1">
          <mxGeometry x="1245" y="500" width="120" height="60" as="geometry" />
        </mxCell>
        <mxCell id="q8fLoaQlOaHjxgoT106--4" value="cashback" style="rounded=0;whiteSpace=wrap;html=1;" parent="1" vertex="1">
          <mxGeometry x="1440" y="500" width="120" height="60" as="geometry" />
        </mxCell>
        <mxCell id="q8fLoaQlOaHjxgoT106--10" value="status" style="ellipse;whiteSpace=wrap;html=1;align=center;" parent="1" vertex="1">
          <mxGeometry x="1200" y="90" width="100" height="40" as="geometry" />
        </mxCell>
        <mxCell id="q8fLoaQlOaHjxgoT106--12" value="validDate" style="ellipse;whiteSpace=wrap;html=1;align=center;" parent="1" vertex="1">
          <mxGeometry x="1280" y="50" width="100" height="40" as="geometry" />
        </mxCell>
        <mxCell id="q8fLoaQlOaHjxgoT106--13" value="description" style="ellipse;whiteSpace=wrap;html=1;align=center;" parent="1" vertex="1">
          <mxGeometry x="1370" y="80" width="100" height="40" as="geometry" />
        </mxCell>
        <mxCell id="q8fLoaQlOaHjxgoT106--14" style="edgeStyle=orthogonalEdgeStyle;rounded=0;orthogonalLoop=1;jettySize=auto;html=1;exitX=0.5;exitY=1;exitDx=0;exitDy=0;" parent="1" edge="1">
          <mxGeometry relative="1" as="geometry">
            <mxPoint x="1090" y="110" as="sourcePoint" />
            <mxPoint x="1090" y="110" as="targetPoint" />
          </mxGeometry>
        </mxCell>
        <mxCell id="q8fLoaQlOaHjxgoT106--15" value="benefitID" style="ellipse;whiteSpace=wrap;html=1;align=center;fontStyle=4;" parent="1" vertex="1">
          <mxGeometry x="1120" y="50" width="100" height="40" as="geometry" />
        </mxCell>
        <mxCell id="q8fLoaQlOaHjxgoT106--16" value="" style="endArrow=none;html=1;rounded=0;entryX=0.091;entryY=0;entryDx=0;entryDy=0;exitX=0.583;exitY=1.033;exitDx=0;exitDy=0;exitPerimeter=0;entryPerimeter=0;" parent="1" source="q8fLoaQlOaHjxgoT106--15" target="q8fLoaQlOaHjxgoT106--1" edge="1">
          <mxGeometry relative="1" as="geometry">
            <mxPoint x="1070" y="200" as="sourcePoint" />
            <mxPoint x="1230" y="200" as="targetPoint" />
            <Array as="points">
              <mxPoint x="1260" y="240" />
            </Array>
          </mxGeometry>
        </mxCell>
        <mxCell id="q8fLoaQlOaHjxgoT106--17" value="" style="endArrow=none;html=1;rounded=0;entryX=0.814;entryY=-0.044;entryDx=0;entryDy=0;exitX=0.337;exitY=0.983;exitDx=0;exitDy=0;exitPerimeter=0;entryPerimeter=0;" parent="1" source="q8fLoaQlOaHjxgoT106--13" target="q8fLoaQlOaHjxgoT106--1" edge="1">
          <mxGeometry relative="1" as="geometry">
            <mxPoint x="1420" y="120.5" as="sourcePoint" />
            <mxPoint x="1562" y="239.5" as="targetPoint" />
          </mxGeometry>
        </mxCell>
        <mxCell id="q8fLoaQlOaHjxgoT106--18" value="" style="endArrow=none;html=1;rounded=0;entryX=0.5;entryY=0;entryDx=0;entryDy=0;exitX=0.5;exitY=1;exitDx=0;exitDy=0;" parent="1" source="q8fLoaQlOaHjxgoT106--12" target="q8fLoaQlOaHjxgoT106--1" edge="1">
          <mxGeometry relative="1" as="geometry">
            <mxPoint x="1288" y="90" as="sourcePoint" />
            <mxPoint x="1430" y="209" as="targetPoint" />
          </mxGeometry>
        </mxCell>
        <mxCell id="q8fLoaQlOaHjxgoT106--19" value="" style="endArrow=none;html=1;rounded=0;entryX=0.25;entryY=0;entryDx=0;entryDy=0;exitX=0.5;exitY=1;exitDx=0;exitDy=0;" parent="1" source="q8fLoaQlOaHjxgoT106--10" target="q8fLoaQlOaHjxgoT106--1" edge="1">
          <mxGeometry relative="1" as="geometry">
            <mxPoint x="1250" y="150" as="sourcePoint" />
            <mxPoint x="1362" y="210" as="targetPoint" />
          </mxGeometry>
        </mxCell>
        <mxCell id="q8fLoaQlOaHjxgoT106--20" value="d" style="ellipse;whiteSpace=wrap;html=1;aspect=fixed;" parent="1" vertex="1">
          <mxGeometry x="1290" y="330" width="30" height="30" as="geometry" />
        </mxCell>
        <mxCell id="q8fLoaQlOaHjxgoT106--21" value="" style="endArrow=none;html=1;rounded=0;entryX=0.5;entryY=0;entryDx=0;entryDy=0;exitX=0.5;exitY=1;exitDx=0;exitDy=0;" parent="1" source="q8fLoaQlOaHjxgoT106--1" target="q8fLoaQlOaHjxgoT106--20" edge="1">
          <mxGeometry relative="1" as="geometry">
            <mxPoint x="1225" y="329.5" as="sourcePoint" />
            <mxPoint x="1385" y="329.5" as="targetPoint" />
          </mxGeometry>
        </mxCell>
        <mxCell id="q8fLoaQlOaHjxgoT106--28" value="" style="endArrow=none;html=1;rounded=0;entryX=0;entryY=0.5;entryDx=0;entryDy=0;exitX=0.5;exitY=0;exitDx=0;exitDy=0;" parent="1" source="q8fLoaQlOaHjxgoT106--2" target="q8fLoaQlOaHjxgoT106--20" edge="1">
          <mxGeometry relative="1" as="geometry">
            <mxPoint x="1120" y="400" as="sourcePoint" />
            <mxPoint x="1280" y="400" as="targetPoint" />
          </mxGeometry>
        </mxCell>
        <mxCell id="q8fLoaQlOaHjxgoT106--29" value="" style="endArrow=none;html=1;rounded=0;entryX=0.5;entryY=1;entryDx=0;entryDy=0;exitX=0.458;exitY=0;exitDx=0;exitDy=0;exitPerimeter=0;" parent="1" source="q8fLoaQlOaHjxgoT106--3" target="q8fLoaQlOaHjxgoT106--20" edge="1">
          <mxGeometry relative="1" as="geometry">
            <mxPoint x="1330" y="440" as="sourcePoint" />
            <mxPoint x="1300.0000000000005" y="380" as="targetPoint" />
          </mxGeometry>
        </mxCell>
        <mxCell id="q8fLoaQlOaHjxgoT106--30" value="" style="endArrow=none;html=1;rounded=0;entryX=1;entryY=0.5;entryDx=0;entryDy=0;exitX=0.5;exitY=0;exitDx=0;exitDy=0;" parent="1" source="q8fLoaQlOaHjxgoT106--4" target="q8fLoaQlOaHjxgoT106--20" edge="1">
          <mxGeometry relative="1" as="geometry">
            <mxPoint x="1440" y="455" as="sourcePoint" />
            <mxPoint x="1620" y="300" as="targetPoint" />
          </mxGeometry>
        </mxCell>
        <mxCell id="q8fLoaQlOaHjxgoT106--31" value="creditDate" style="ellipse;whiteSpace=wrap;html=1;align=center;" parent="1" vertex="1">
          <mxGeometry x="1510" y="600" width="80" height="40" as="geometry" />
        </mxCell>
        <mxCell id="q8fLoaQlOaHjxgoT106--32" value="amount" style="ellipse;whiteSpace=wrap;html=1;align=center;" parent="1" vertex="1">
          <mxGeometry x="1420" y="600" width="80" height="40" as="geometry" />
        </mxCell>
        <mxCell id="q8fLoaQlOaHjxgoT106--33" value="amount" style="ellipse;whiteSpace=wrap;html=1;align=center;" parent="1" vertex="1">
          <mxGeometry x="1060" y="605" width="100" height="40" as="geometry" />
        </mxCell>
        <mxCell id="q8fLoaQlOaHjxgoT106--35" value="" style="endArrow=none;html=1;rounded=0;entryX=0.5;entryY=1;entryDx=0;entryDy=0;exitX=0.5;exitY=0;exitDx=0;exitDy=0;" parent="1" source="q8fLoaQlOaHjxgoT106--33" target="q8fLoaQlOaHjxgoT106--2" edge="1">
          <mxGeometry relative="1" as="geometry">
            <mxPoint x="1060" y="805" as="sourcePoint" />
            <mxPoint x="1240" y="650" as="targetPoint" />
          </mxGeometry>
        </mxCell>
        <mxCell id="q8fLoaQlOaHjxgoT106--38" value="" style="endArrow=none;html=1;rounded=0;entryX=0.25;entryY=1;entryDx=0;entryDy=0;exitX=0.5;exitY=0;exitDx=0;exitDy=0;" parent="1" source="q8fLoaQlOaHjxgoT106--32" target="q8fLoaQlOaHjxgoT106--4" edge="1">
          <mxGeometry relative="1" as="geometry">
            <mxPoint x="1410" y="600" as="sourcePoint" />
            <mxPoint x="1410" y="555" as="targetPoint" />
          </mxGeometry>
        </mxCell>
        <mxCell id="q8fLoaQlOaHjxgoT106--39" value="" style="endArrow=none;html=1;rounded=0;entryX=0.842;entryY=1.001;entryDx=0;entryDy=0;entryPerimeter=0;exitX=0.5;exitY=0;exitDx=0;exitDy=0;" parent="1" source="q8fLoaQlOaHjxgoT106--31" target="q8fLoaQlOaHjxgoT106--4" edge="1">
          <mxGeometry relative="1" as="geometry">
            <mxPoint x="1540" y="590" as="sourcePoint" />
            <mxPoint x="1540" y="565" as="targetPoint" />
          </mxGeometry>
        </mxCell>
        <mxCell id="q8fLoaQlOaHjxgoT106--41" value="callMinutes" style="ellipse;whiteSpace=wrap;html=1;align=center;" parent="1" vertex="1">
          <mxGeometry x="1320" y="610" width="80" height="40" as="geometry" />
        </mxCell>
        <mxCell id="q8fLoaQlOaHjxgoT106--42" value="numSMS" style="ellipse;whiteSpace=wrap;html=1;align=center;" parent="1" vertex="1">
          <mxGeometry x="1250" y="635" width="70" height="40" as="geometry" />
        </mxCell>
        <mxCell id="q8fLoaQlOaHjxgoT106--44" value="internetGBs" style="ellipse;whiteSpace=wrap;html=1;align=center;" parent="1" vertex="1">
          <mxGeometry x="1190" y="595" width="70" height="40" as="geometry" />
        </mxCell>
        <mxCell id="q8fLoaQlOaHjxgoT106--48" value="" style="endArrow=none;html=1;rounded=0;entryX=0.75;entryY=1;entryDx=0;entryDy=0;exitX=0.5;exitY=0;exitDx=0;exitDy=0;" parent="1" source="q8fLoaQlOaHjxgoT106--41" target="q8fLoaQlOaHjxgoT106--3" edge="1">
          <mxGeometry relative="1" as="geometry">
            <mxPoint x="1365" y="635" as="sourcePoint" />
            <mxPoint x="1365" y="590" as="targetPoint" />
          </mxGeometry>
        </mxCell>
        <mxCell id="q8fLoaQlOaHjxgoT106--49" value="" style="endArrow=none;html=1;rounded=0;entryX=0.5;entryY=1;entryDx=0;entryDy=0;exitX=0.5;exitY=0;exitDx=0;exitDy=0;" parent="1" source="q8fLoaQlOaHjxgoT106--42" target="q8fLoaQlOaHjxgoT106--3" edge="1">
          <mxGeometry relative="1" as="geometry">
            <mxPoint x="1304.6399999999999" y="620" as="sourcePoint" />
            <mxPoint x="1304.6399999999999" y="575" as="targetPoint" />
          </mxGeometry>
        </mxCell>
        <mxCell id="q8fLoaQlOaHjxgoT106--50" value="" style="endArrow=none;html=1;rounded=0;entryX=0.25;entryY=1;entryDx=0;entryDy=0;exitX=0.5;exitY=0;exitDx=0;exitDy=0;" parent="1" source="q8fLoaQlOaHjxgoT106--44" target="q8fLoaQlOaHjxgoT106--3" edge="1">
          <mxGeometry relative="1" as="geometry">
            <mxPoint x="1260" y="695" as="sourcePoint" />
            <mxPoint x="1270" y="565" as="targetPoint" />
          </mxGeometry>
        </mxCell>
        <mxCell id="q8fLoaQlOaHjxgoT106--51" value="&lt;i style=&quot;font-size: 29px;&quot;&gt;U&lt;/i&gt;" style="text;html=1;align=center;verticalAlign=middle;resizable=0;points=[];autosize=1;strokeColor=none;fillColor=none;rotation=0;fontSize=29;fontFamily=Helvetica;textOpacity=60;spacing=2;" parent="1" vertex="1">
          <mxGeometry x="1280.0003298342456" y="390.002451794556" width="40" height="50" as="geometry" />
        </mxCell>
        <mxCell id="q8fLoaQlOaHjxgoT106--52" value="&lt;i style=&quot;font-size: 29px;&quot;&gt;U&lt;/i&gt;" style="text;html=1;align=center;verticalAlign=middle;resizable=0;points=[];autosize=1;strokeColor=none;fillColor=none;rotation=45;fontSize=29;fontFamily=Helvetica;textOpacity=60;spacing=2;" parent="1" vertex="1">
          <mxGeometry x="1190.0003298342456" y="390.002451794556" width="40" height="50" as="geometry" />
        </mxCell>
        <mxCell id="q8fLoaQlOaHjxgoT106--53" value="&lt;i style=&quot;font-size: 29px;&quot;&gt;U&lt;/i&gt;" style="text;html=1;align=center;verticalAlign=middle;resizable=0;points=[];autosize=1;strokeColor=none;fillColor=none;rotation=-45;fontSize=29;fontFamily=Helvetica;textOpacity=60;spacing=2;" parent="1" vertex="1">
          <mxGeometry x="1400.0003298342456" y="410.002451794556" width="40" height="50" as="geometry" />
        </mxCell>
        <mxCell id="q8fLoaQlOaHjxgoT106--58" value="provides" style="shape=rhombus;perimeter=rhombusPerimeter;whiteSpace=wrap;html=1;align=center;" parent="1" vertex="1">
          <mxGeometry x="930" y="740" width="120" height="60" as="geometry" />
        </mxCell>
        <mxCell id="q8fLoaQlOaHjxgoT106--59" value="entitled" style="shape=rhombus;perimeter=rhombusPerimeter;whiteSpace=wrap;html=1;align=center;" parent="1" vertex="1">
          <mxGeometry x="910" y="260" width="120" height="60" as="geometry" />
        </mxCell>
        <mxCell id="q8fLoaQlOaHjxgoT106--61" value="" style="ellipse;whiteSpace=wrap;html=1;align=center;aspect=fixed;fillColor=none;strokeColor=none;resizable=0;perimeter=centerPerimeter;rotatable=0;allowArrows=0;points=[];outlineConnect=1;" parent="1" vertex="1">
          <mxGeometry x="990" y="675" width="10" height="10" as="geometry" />
        </mxCell>
        <mxCell id="q8fLoaQlOaHjxgoT106--74" value="" style="edgeStyle=orthogonalEdgeStyle;fontSize=12;html=1;endArrow=ERzeroToMany;endFill=1;rounded=0;curved=1;exitX=1;exitY=0.5;exitDx=0;exitDy=0;entryX=0;entryY=0.25;entryDx=0;entryDy=0;" parent="1" source="q8fLoaQlOaHjxgoT106--59" target="q8fLoaQlOaHjxgoT106--1" edge="1">
          <mxGeometry width="100" height="100" relative="1" as="geometry">
            <mxPoint x="949.52" y="280" as="sourcePoint" />
            <mxPoint x="1230" y="265" as="targetPoint" />
          </mxGeometry>
        </mxCell>
        <mxCell id="q8fLoaQlOaHjxgoT106--75" value="" style="edgeStyle=orthogonalEdgeStyle;fontSize=12;html=1;endArrow=ERoneToMany;rounded=0;curved=1;exitX=0;exitY=0.5;exitDx=0;exitDy=0;entryX=0.5;entryY=0;entryDx=0;entryDy=0;" parent="1" source="q8fLoaQlOaHjxgoT106--59" target="nOJYXH8r22cCcYCmpwuw-3" edge="1">
          <mxGeometry width="100" height="100" relative="1" as="geometry">
            <mxPoint x="959.52" y="429.52" as="sourcePoint" />
            <mxPoint x="690" y="330" as="targetPoint" />
          </mxGeometry>
        </mxCell>
        <mxCell id="q8fLoaQlOaHjxgoT106--77" value="" style="edgeStyle=orthogonalEdgeStyle;fontSize=12;html=1;endArrow=ERzeroToMany;endFill=1;rounded=0;curved=1;entryX=0;entryY=0.75;entryDx=0;entryDy=0;exitX=0.5;exitY=0;exitDx=0;exitDy=0;" parent="1" source="q8fLoaQlOaHjxgoT106--58" target="q8fLoaQlOaHjxgoT106--1" edge="1">
          <mxGeometry width="100" height="100" relative="1" as="geometry">
            <mxPoint x="840" y="705" as="sourcePoint" />
            <mxPoint x="940" y="605" as="targetPoint" />
          </mxGeometry>
        </mxCell>
        <mxCell id="q8fLoaQlOaHjxgoT106--78" value="" style="edgeStyle=orthogonalEdgeStyle;fontSize=12;html=1;endArrow=ERoneToMany;rounded=0;curved=1;exitX=0.5;exitY=1;exitDx=0;exitDy=0;entryX=0.75;entryY=0;entryDx=0;entryDy=0;" parent="1" source="q8fLoaQlOaHjxgoT106--58" target="YVMlVOvHzLtNW060m_QN-48" edge="1">
          <mxGeometry width="100" height="100" relative="1" as="geometry">
            <mxPoint x="690" y="990" as="sourcePoint" />
            <mxPoint x="25" y="890" as="targetPoint" />
          </mxGeometry>
        </mxCell>
        <mxCell id="hJgWM3j1Ndd_bO8ZGJlk-1" value="Plan Usage&amp;nbsp;" style="rounded=1;whiteSpace=wrap;html=1;" parent="1" vertex="1">
          <mxGeometry x="1025" y="1180" width="120" height="60" as="geometry" />
        </mxCell>
        <mxCell id="hJgWM3j1Ndd_bO8ZGJlk-2" value="" style="endArrow=none;html=1;rounded=0;fontSize=12;startSize=8;endSize=8;curved=1;exitX=1;exitY=0.5;exitDx=0;exitDy=0;" parent="1" source="hJgWM3j1Ndd_bO8ZGJlk-1" target="hJgWM3j1Ndd_bO8ZGJlk-3" edge="1">
          <mxGeometry width="50" height="50" relative="1" as="geometry">
            <mxPoint x="1405" y="1250" as="sourcePoint" />
            <mxPoint x="1245" y="1150" as="targetPoint" />
          </mxGeometry>
        </mxCell>
        <mxCell id="hJgWM3j1Ndd_bO8ZGJlk-3" value="Minutes Used&amp;nbsp;" style="ellipse;whiteSpace=wrap;html=1;" parent="1" vertex="1">
          <mxGeometry x="1225" y="1190" width="140" height="50" as="geometry" />
        </mxCell>
        <mxCell id="hJgWM3j1Ndd_bO8ZGJlk-4" value="SMS Sent" style="ellipse;whiteSpace=wrap;html=1;" parent="1" vertex="1">
          <mxGeometry x="1235" y="1250" width="110" height="40" as="geometry" />
        </mxCell>
        <mxCell id="hJgWM3j1Ndd_bO8ZGJlk-5" value="" style="endArrow=none;html=1;rounded=0;fontSize=12;startSize=8;endSize=8;curved=1;entryX=0.5;entryY=0;entryDx=0;entryDy=0;exitX=1;exitY=0.75;exitDx=0;exitDy=0;" parent="1" source="hJgWM3j1Ndd_bO8ZGJlk-1" target="hJgWM3j1Ndd_bO8ZGJlk-4" edge="1">
          <mxGeometry width="50" height="50" relative="1" as="geometry">
            <mxPoint x="1457.4264068711927" y="1238.284271247462" as="sourcePoint" />
            <mxPoint x="1210" y="1240" as="targetPoint" />
          </mxGeometry>
        </mxCell>
        <mxCell id="hJgWM3j1Ndd_bO8ZGJlk-8" value="&lt;u&gt;Usage ID&lt;/u&gt;" style="ellipse;whiteSpace=wrap;html=1;" parent="1" vertex="1">
          <mxGeometry x="1115" y="1350" width="110" height="70" as="geometry" />
        </mxCell>
        <mxCell id="hJgWM3j1Ndd_bO8ZGJlk-9" value="" style="endArrow=none;html=1;rounded=0;fontSize=12;startSize=8;endSize=8;curved=1;exitX=0.5;exitY=0;exitDx=0;exitDy=0;" parent="1" source="hJgWM3j1Ndd_bO8ZGJlk-8" edge="1">
          <mxGeometry width="50" height="50" relative="1" as="geometry">
            <mxPoint x="1205" y="1290" as="sourcePoint" />
            <mxPoint x="1115" y="1240" as="targetPoint" />
          </mxGeometry>
        </mxCell>
        <mxCell id="hJgWM3j1Ndd_bO8ZGJlk-12" value="Start Date" style="ellipse;whiteSpace=wrap;html=1;" parent="1" vertex="1">
          <mxGeometry x="1005" y="1390" width="110" height="40" as="geometry" />
        </mxCell>
        <mxCell id="hJgWM3j1Ndd_bO8ZGJlk-13" value="End Date" style="ellipse;whiteSpace=wrap;html=1;" parent="1" vertex="1">
          <mxGeometry x="885" y="1370" width="120" height="55" as="geometry" />
        </mxCell>
        <mxCell id="hJgWM3j1Ndd_bO8ZGJlk-14" value="" style="endArrow=none;html=1;rounded=0;fontSize=12;startSize=8;endSize=8;curved=1;entryX=0.307;entryY=0.99;entryDx=0;entryDy=0;exitX=0.5;exitY=0;exitDx=0;exitDy=0;entryPerimeter=0;" parent="1" source="hJgWM3j1Ndd_bO8ZGJlk-12" target="hJgWM3j1Ndd_bO8ZGJlk-1" edge="1">
          <mxGeometry width="50" height="50" relative="1" as="geometry">
            <mxPoint x="905" y="1340" as="sourcePoint" />
            <mxPoint x="955" y="1290" as="targetPoint" />
          </mxGeometry>
        </mxCell>
        <mxCell id="hJgWM3j1Ndd_bO8ZGJlk-15" value="Data Consumption" style="ellipse;whiteSpace=wrap;html=1;" parent="1" vertex="1">
          <mxGeometry x="1195" y="1300" width="120" height="60" as="geometry" />
        </mxCell>
        <mxCell id="hJgWM3j1Ndd_bO8ZGJlk-16" value="" style="endArrow=none;html=1;rounded=0;fontSize=12;startSize=8;endSize=8;curved=1;exitX=0.5;exitY=0;exitDx=0;exitDy=0;entryX=0.895;entryY=1.004;entryDx=0;entryDy=0;entryPerimeter=0;" parent="1" source="hJgWM3j1Ndd_bO8ZGJlk-15" target="hJgWM3j1Ndd_bO8ZGJlk-1" edge="1">
          <mxGeometry width="50" height="50" relative="1" as="geometry">
            <mxPoint x="875" y="1240" as="sourcePoint" />
            <mxPoint x="1363.611251260365" y="1230.6472651186032" as="targetPoint" />
          </mxGeometry>
        </mxCell>
        <mxCell id="hJgWM3j1Ndd_bO8ZGJlk-17" value="" style="endArrow=none;html=1;rounded=0;fontSize=12;startSize=8;endSize=8;curved=1;entryX=0.09;entryY=1.016;entryDx=0;entryDy=0;exitX=0.5;exitY=0;exitDx=0;exitDy=0;entryPerimeter=0;" parent="1" source="hJgWM3j1Ndd_bO8ZGJlk-13" target="hJgWM3j1Ndd_bO8ZGJlk-1" edge="1">
          <mxGeometry width="50" height="50" relative="1" as="geometry">
            <mxPoint x="935" y="1200" as="sourcePoint" />
            <mxPoint x="985" y="1150" as="targetPoint" />
          </mxGeometry>
        </mxCell>
        <mxCell id="hJgWM3j1Ndd_bO8ZGJlk-18" value="" style="endArrow=none;html=1;rounded=0;fontSize=12;startSize=8;endSize=8;curved=1;entryX=0.817;entryY=1.009;entryDx=0;entryDy=0;entryPerimeter=0;exitX=0.5;exitY=0;exitDx=0;exitDy=0;" parent="1" source="hJgWM3j1Ndd_bO8ZGJlk-22" target="nOJYXH8r22cCcYCmpwuw-3" edge="1">
          <mxGeometry width="50" height="50" relative="1" as="geometry">
            <mxPoint x="890" y="910" as="sourcePoint" />
            <mxPoint x="750" y="550" as="targetPoint" />
          </mxGeometry>
        </mxCell>
        <mxCell id="hJgWM3j1Ndd_bO8ZGJlk-19" value="" style="endArrow=none;html=1;rounded=0;fontSize=12;startSize=8;endSize=8;curved=1;" parent="1" edge="1">
          <mxGeometry width="50" height="50" relative="1" as="geometry">
            <mxPoint x="700" y="470" as="sourcePoint" />
            <mxPoint x="710" y="463.91" as="targetPoint" />
          </mxGeometry>
        </mxCell>
        <mxCell id="hJgWM3j1Ndd_bO8ZGJlk-20" value="" style="endArrow=none;html=1;rounded=0;fontSize=12;startSize=8;endSize=8;curved=1;" parent="1" edge="1">
          <mxGeometry width="50" height="50" relative="1" as="geometry">
            <mxPoint x="700" y="476.09" as="sourcePoint" />
            <mxPoint x="710" y="470" as="targetPoint" />
          </mxGeometry>
        </mxCell>
        <mxCell id="hJgWM3j1Ndd_bO8ZGJlk-22" value="Utilizes&amp;nbsp;" style="shape=rhombus;perimeter=rhombusPerimeter;whiteSpace=wrap;html=1;align=center;" parent="1" vertex="1">
          <mxGeometry x="820" y="880" width="120" height="60" as="geometry" />
        </mxCell>
        <mxCell id="hJgWM3j1Ndd_bO8ZGJlk-37" value="" style="fontSize=12;html=1;endArrow=ERzeroToMany;endFill=1;rounded=0;entryX=0.377;entryY=-0.007;entryDx=0;entryDy=0;exitX=0.5;exitY=1;exitDx=0;exitDy=0;entryPerimeter=0;edgeStyle=elbowEdgeStyle;elbow=vertical;" parent="1" target="hJgWM3j1Ndd_bO8ZGJlk-1" edge="1" source="hJgWM3j1Ndd_bO8ZGJlk-22">
          <mxGeometry width="100" height="100" relative="1" as="geometry">
            <mxPoint x="990" y="970" as="sourcePoint" />
            <mxPoint x="960" y="1040" as="targetPoint" />
          </mxGeometry>
        </mxCell>
        <mxCell id="hJgWM3j1Ndd_bO8ZGJlk-46" value="Payment" style="rounded=1;whiteSpace=wrap;html=1;" parent="1" vertex="1">
          <mxGeometry x="450" y="1150" width="120" height="60" as="geometry" />
        </mxCell>
        <mxCell id="hJgWM3j1Ndd_bO8ZGJlk-47" value="" style="endArrow=none;html=1;rounded=0;fontSize=12;startSize=8;endSize=8;curved=1;entryX=0.801;entryY=0.997;entryDx=0;entryDy=0;exitX=0.5;exitY=0;exitDx=0;exitDy=0;entryPerimeter=0;" parent="1" source="hJgWM3j1Ndd_bO8ZGJlk-48" target="hJgWM3j1Ndd_bO8ZGJlk-46" edge="1">
          <mxGeometry width="50" height="50" relative="1" as="geometry">
            <mxPoint x="500" y="1270" as="sourcePoint" />
            <mxPoint x="530" y="1230" as="targetPoint" />
          </mxGeometry>
        </mxCell>
        <mxCell id="hJgWM3j1Ndd_bO8ZGJlk-48" value="&lt;u&gt;Payment ID&lt;/u&gt;" style="ellipse;whiteSpace=wrap;html=1;" parent="1" vertex="1">
          <mxGeometry x="600" y="1305" width="120" height="70" as="geometry" />
        </mxCell>
        <mxCell id="hJgWM3j1Ndd_bO8ZGJlk-51" value="" style="endArrow=none;html=1;rounded=0;fontSize=12;startSize=8;endSize=8;curved=1;exitX=1;exitY=0.25;exitDx=0;exitDy=0;" parent="1" target="hJgWM3j1Ndd_bO8ZGJlk-52" edge="1" source="hJgWM3j1Ndd_bO8ZGJlk-1">
          <mxGeometry width="50" height="50" relative="1" as="geometry">
            <mxPoint x="1175" y="1190" as="sourcePoint" />
            <mxPoint x="1315" y="1140" as="targetPoint" />
          </mxGeometry>
        </mxCell>
        <mxCell id="hJgWM3j1Ndd_bO8ZGJlk-52" value="AccountID" style="ellipse;whiteSpace=wrap;html=1;" parent="1" vertex="1">
          <mxGeometry x="1215" y="1130" width="120" height="60" as="geometry" />
        </mxCell>
        <mxCell id="hJgWM3j1Ndd_bO8ZGJlk-53" value="PlanID" style="ellipse;whiteSpace=wrap;html=1;" parent="1" vertex="1">
          <mxGeometry x="1140" y="1080" width="120" height="60" as="geometry" />
        </mxCell>
        <mxCell id="hJgWM3j1Ndd_bO8ZGJlk-54" value="" style="endArrow=none;html=1;rounded=0;fontSize=12;startSize=8;endSize=8;curved=1;entryX=0;entryY=1;entryDx=0;entryDy=0;exitX=0.951;exitY=0.008;exitDx=0;exitDy=0;exitPerimeter=0;" parent="1" source="hJgWM3j1Ndd_bO8ZGJlk-1" target="hJgWM3j1Ndd_bO8ZGJlk-53" edge="1">
          <mxGeometry width="50" height="50" relative="1" as="geometry">
            <mxPoint x="1085" y="1300" as="sourcePoint" />
            <mxPoint x="1135" y="1250" as="targetPoint" />
          </mxGeometry>
        </mxCell>
        <mxCell id="hJgWM3j1Ndd_bO8ZGJlk-56" value="" style="endArrow=none;html=1;rounded=0;fontSize=12;startSize=8;endSize=8;curved=1;exitX=0.205;exitY=0.166;exitDx=0;exitDy=0;exitPerimeter=0;" parent="1" source="hJgWM3j1Ndd_bO8ZGJlk-57" target="hJgWM3j1Ndd_bO8ZGJlk-46" edge="1">
          <mxGeometry width="50" height="50" relative="1" as="geometry">
            <mxPoint x="640" y="1270" as="sourcePoint" />
            <mxPoint x="640" y="1210" as="targetPoint" />
          </mxGeometry>
        </mxCell>
        <mxCell id="hJgWM3j1Ndd_bO8ZGJlk-57" value="AccountID" style="ellipse;whiteSpace=wrap;html=1;" parent="1" vertex="1">
          <mxGeometry x="650" y="1255" width="120" height="50" as="geometry" />
        </mxCell>
        <mxCell id="hJgWM3j1Ndd_bO8ZGJlk-58" value="PlanID" style="ellipse;whiteSpace=wrap;html=1;" parent="1" vertex="1">
          <mxGeometry x="505" y="1360" width="120" height="50" as="geometry" />
        </mxCell>
        <mxCell id="hJgWM3j1Ndd_bO8ZGJlk-59" value="" style="endArrow=none;html=1;rounded=0;fontSize=12;startSize=8;endSize=8;curved=1;entryX=0.653;entryY=1.004;entryDx=0;entryDy=0;entryPerimeter=0;exitX=0.5;exitY=0;exitDx=0;exitDy=0;" parent="1" source="hJgWM3j1Ndd_bO8ZGJlk-58" target="hJgWM3j1Ndd_bO8ZGJlk-46" edge="1">
          <mxGeometry width="50" height="50" relative="1" as="geometry">
            <mxPoint x="460" y="1270" as="sourcePoint" />
            <mxPoint x="510" y="1220" as="targetPoint" />
          </mxGeometry>
        </mxCell>
        <mxCell id="hJgWM3j1Ndd_bO8ZGJlk-60" value="Transaction Amount" style="ellipse;whiteSpace=wrap;html=1;" parent="1" vertex="1">
          <mxGeometry x="380" y="1360" width="120" height="50" as="geometry" />
        </mxCell>
        <mxCell id="hJgWM3j1Ndd_bO8ZGJlk-61" value="" style="endArrow=none;html=1;rounded=0;fontSize=12;startSize=8;endSize=8;curved=1;entryX=0.5;entryY=1;entryDx=0;entryDy=0;exitX=0.5;exitY=0;exitDx=0;exitDy=0;" parent="1" source="hJgWM3j1Ndd_bO8ZGJlk-60" target="hJgWM3j1Ndd_bO8ZGJlk-46" edge="1">
          <mxGeometry width="50" height="50" relative="1" as="geometry">
            <mxPoint x="500" y="1390" as="sourcePoint" />
            <mxPoint x="550" y="1340" as="targetPoint" />
          </mxGeometry>
        </mxCell>
        <mxCell id="hJgWM3j1Ndd_bO8ZGJlk-62" value="Payment Date&amp;nbsp;" style="ellipse;whiteSpace=wrap;html=1;" parent="1" vertex="1">
          <mxGeometry x="290" y="1320" width="120" height="55" as="geometry" />
        </mxCell>
        <mxCell id="hJgWM3j1Ndd_bO8ZGJlk-63" value="" style="endArrow=none;html=1;rounded=0;fontSize=12;startSize=8;endSize=8;curved=1;exitX=0.5;exitY=0;exitDx=0;exitDy=0;entryX=0.37;entryY=0.999;entryDx=0;entryDy=0;entryPerimeter=0;" parent="1" source="hJgWM3j1Ndd_bO8ZGJlk-62" target="hJgWM3j1Ndd_bO8ZGJlk-46" edge="1">
          <mxGeometry width="50" height="50" relative="1" as="geometry">
            <mxPoint x="340" y="1390" as="sourcePoint" />
            <mxPoint x="390" y="1340" as="targetPoint" />
          </mxGeometry>
        </mxCell>
        <mxCell id="hJgWM3j1Ndd_bO8ZGJlk-65" value="Payment Mtheod" style="ellipse;whiteSpace=wrap;html=1;" parent="1" vertex="1">
          <mxGeometry x="230" y="1260" width="120" height="60" as="geometry" />
        </mxCell>
        <mxCell id="hJgWM3j1Ndd_bO8ZGJlk-66" value="" style="endArrow=none;html=1;rounded=0;fontSize=12;startSize=8;endSize=8;curved=1;exitX=0.74;exitY=0.062;exitDx=0;exitDy=0;exitPerimeter=0;entryX=0.25;entryY=1;entryDx=0;entryDy=0;" parent="1" source="hJgWM3j1Ndd_bO8ZGJlk-65" target="hJgWM3j1Ndd_bO8ZGJlk-46" edge="1">
          <mxGeometry width="50" height="50" relative="1" as="geometry">
            <mxPoint x="320" y="1380" as="sourcePoint" />
            <mxPoint x="370" y="1330" as="targetPoint" />
          </mxGeometry>
        </mxCell>
        <mxCell id="hJgWM3j1Ndd_bO8ZGJlk-67" value="" style="endArrow=none;html=1;rounded=0;fontSize=12;startSize=8;endSize=8;curved=1;entryX=0.148;entryY=1.019;entryDx=0;entryDy=0;entryPerimeter=0;exitX=0.902;exitY=0.229;exitDx=0;exitDy=0;exitPerimeter=0;" parent="1" source="hJgWM3j1Ndd_bO8ZGJlk-68" target="hJgWM3j1Ndd_bO8ZGJlk-46" edge="1">
          <mxGeometry width="50" height="50" relative="1" as="geometry">
            <mxPoint x="290" y="1370" as="sourcePoint" />
            <mxPoint x="420" y="1130" as="targetPoint" />
          </mxGeometry>
        </mxCell>
        <mxCell id="hJgWM3j1Ndd_bO8ZGJlk-68" value="Payment Status" style="ellipse;whiteSpace=wrap;html=1;" parent="1" vertex="1">
          <mxGeometry x="210" y="1200" width="120" height="60" as="geometry" />
        </mxCell>
        <mxCell id="hJgWM3j1Ndd_bO8ZGJlk-70" value="" style="fontSize=12;html=1;endArrow=ERmandOne;rounded=0;entryX=0.711;entryY=1.004;entryDx=0;entryDy=0;entryPerimeter=0;exitX=0.5;exitY=1;exitDx=0;exitDy=0;" parent="1" source="hJgWM3j1Ndd_bO8ZGJlk-71" target="nOJYXH8r22cCcYCmpwuw-3" edge="1">
          <mxGeometry width="100" height="100" relative="1" as="geometry">
            <mxPoint x="760" y="1020" as="sourcePoint" />
            <mxPoint x="680" y="460" as="targetPoint" />
          </mxGeometry>
        </mxCell>
        <mxCell id="hJgWM3j1Ndd_bO8ZGJlk-71" value="Initiates" style="shape=rhombus;perimeter=rhombusPerimeter;whiteSpace=wrap;html=1;align=center;rotation=0;direction=west;" parent="1" vertex="1">
          <mxGeometry x="642.5" y="890" width="135" height="60" as="geometry" />
        </mxCell>
        <mxCell id="hJgWM3j1Ndd_bO8ZGJlk-73" value="" style="fontSize=12;html=1;endArrow=ERzeroToMany;endFill=1;rounded=0;entryX=0.972;entryY=0.042;entryDx=0;entryDy=0;exitX=0.5;exitY=0;exitDx=0;exitDy=0;entryPerimeter=0;" parent="1" source="hJgWM3j1Ndd_bO8ZGJlk-71" target="hJgWM3j1Ndd_bO8ZGJlk-46" edge="1">
          <mxGeometry width="100" height="100" relative="1" as="geometry">
            <mxPoint x="758.75" y="1075" as="sourcePoint" />
            <mxPoint x="601.25" y="1235" as="targetPoint" />
          </mxGeometry>
        </mxCell>
        <mxCell id="aCeVzGXWgDTBMYjYpimo-1" value="Transaction_ID" style="ellipse;whiteSpace=wrap;html=1;align=center;fontStyle=4;" parent="1" vertex="1">
          <mxGeometry x="-190" y="370" width="100" height="40" as="geometry" />
        </mxCell>
        <mxCell id="aCeVzGXWgDTBMYjYpimo-4" value="" style="fontSize=12;html=1;endArrow=ERmandOne;rounded=0;exitX=0.5;exitY=0;exitDx=0;exitDy=0;entryX=0;entryY=0.5;entryDx=0;entryDy=0;edgeStyle=elbowEdgeStyle;" parent="1" source="lE3XEgPGlZlf8RJ6UCjR-2" target="F2KtdEp4NuPGQQRKZKPt-3" edge="1">
          <mxGeometry width="100" height="100" relative="1" as="geometry">
            <mxPoint x="-80" y="310" as="sourcePoint" />
            <mxPoint x="20" y="230" as="targetPoint" />
          </mxGeometry>
        </mxCell>
        <mxCell id="y26kRBOYcE8LaACGCFeC-1" value="Subscription Plan" style="rounded=1;arcSize=10;whiteSpace=wrap;html=1;align=center;" parent="1" vertex="1">
          <mxGeometry x="-20" y="720" width="100" height="40" as="geometry" />
        </mxCell>
        <mxCell id="y26kRBOYcE8LaACGCFeC-5" value="" style="edgeStyle=entityRelationEdgeStyle;fontSize=12;html=1;endArrow=ERoneToMany;rounded=0;entryX=1;entryY=0.5;entryDx=0;entryDy=0;exitX=0;exitY=0.5;exitDx=0;exitDy=0;" parent="1" source="YVMlVOvHzLtNW060m_QN-79" target="y26kRBOYcE8LaACGCFeC-1" edge="1">
          <mxGeometry width="100" height="100" relative="1" as="geometry">
            <mxPoint x="140" y="720" as="sourcePoint" />
            <mxPoint x="40" y="820" as="targetPoint" />
          </mxGeometry>
        </mxCell>
        <mxCell id="y26kRBOYcE8LaACGCFeC-6" value="Has" style="shape=rhombus;perimeter=rhombusPerimeter;whiteSpace=wrap;html=1;align=center;rotation=0;" parent="1" vertex="1">
          <mxGeometry x="-170" y="820" width="120" height="60" as="geometry" />
        </mxCell>
        <mxCell id="y26kRBOYcE8LaACGCFeC-7" value="" style="fontSize=12;html=1;endArrow=ERmandOne;rounded=0;entryX=0.25;entryY=1;entryDx=0;entryDy=0;exitX=1;exitY=0.5;exitDx=0;exitDy=0;edgeStyle=entityRelationEdgeStyle;" parent="1" source="YVMlVOvHzLtNW060m_QN-79" target="nOJYXH8r22cCcYCmpwuw-3" edge="1">
          <mxGeometry width="100" height="100" relative="1" as="geometry">
            <mxPoint x="290" y="710" as="sourcePoint" />
            <mxPoint x="620" y="460" as="targetPoint" />
          </mxGeometry>
        </mxCell>
        <mxCell id="y26kRBOYcE8LaACGCFeC-8" value="" style="fontSize=12;html=1;endArrow=ERoneToMany;rounded=0;entryX=0.25;entryY=1;entryDx=0;entryDy=0;exitX=0.5;exitY=0;exitDx=0;exitDy=0;edgeStyle=elbowEdgeStyle;elbow=vertical;" parent="1" source="y26kRBOYcE8LaACGCFeC-6" target="y26kRBOYcE8LaACGCFeC-1" edge="1">
          <mxGeometry width="100" height="100" relative="1" as="geometry">
            <mxPoint x="170" y="770" as="sourcePoint" />
            <mxPoint x="100" y="790" as="targetPoint" />
          </mxGeometry>
        </mxCell>
        <mxCell id="y26kRBOYcE8LaACGCFeC-10" value="" style="fontSize=12;html=1;endArrow=ERmandOne;rounded=0;entryX=0.5;entryY=0;entryDx=0;entryDy=0;exitX=0.5;exitY=1;exitDx=0;exitDy=0;" parent="1" source="y26kRBOYcE8LaACGCFeC-6" target="YVMlVOvHzLtNW060m_QN-48" edge="1">
          <mxGeometry width="100" height="100" relative="1" as="geometry">
            <mxPoint x="-107.5" y="930" as="sourcePoint" />
            <mxPoint x="-437.5" y="1115" as="targetPoint" />
          </mxGeometry>
        </mxCell>
        <mxCell id="y26kRBOYcE8LaACGCFeC-13" value="" style="fontSize=12;html=1;endArrow=ERmandOne;rounded=0;entryX=1;entryY=1;entryDx=0;entryDy=0;exitX=1;exitY=0.5;exitDx=0;exitDy=0;" parent="1" source="y26kRBOYcE8LaACGCFeC-14" target="y26kRBOYcE8LaACGCFeC-1" edge="1">
          <mxGeometry width="100" height="100" relative="1" as="geometry">
            <mxPoint x="435" y="990" as="sourcePoint" />
            <mxPoint x="335" y="890" as="targetPoint" />
          </mxGeometry>
        </mxCell>
        <mxCell id="y26kRBOYcE8LaACGCFeC-14" value="Associates with" style="shape=rhombus;perimeter=rhombusPerimeter;whiteSpace=wrap;html=1;align=center;rotation=0;direction=west;" parent="1" vertex="1">
          <mxGeometry x="790" y="1185" width="135" height="60" as="geometry" />
        </mxCell>
        <mxCell id="y26kRBOYcE8LaACGCFeC-15" value="" style="fontSize=12;html=1;endArrow=ERzeroToMany;endFill=1;rounded=0;entryX=0;entryY=0.5;entryDx=0;entryDy=0;exitX=0;exitY=0.5;exitDx=0;exitDy=0;" parent="1" source="y26kRBOYcE8LaACGCFeC-14" target="hJgWM3j1Ndd_bO8ZGJlk-1" edge="1">
          <mxGeometry width="100" height="100" relative="1" as="geometry">
            <mxPoint x="870" y="1260" as="sourcePoint" />
            <mxPoint x="1065" y="1470" as="targetPoint" />
          </mxGeometry>
        </mxCell>
        <mxCell id="y26kRBOYcE8LaACGCFeC-16" value="Linked to" style="shape=rhombus;perimeter=rhombusPerimeter;whiteSpace=wrap;html=1;align=center;rotation=0;direction=west;" parent="1" vertex="1">
          <mxGeometry x="175" y="990" width="135" height="60" as="geometry" />
        </mxCell>
        <mxCell id="y26kRBOYcE8LaACGCFeC-17" value="" style="fontSize=12;html=1;endArrow=ERzeroToMany;endFill=1;rounded=0;entryX=0.25;entryY=0;entryDx=0;entryDy=0;exitX=0;exitY=0.5;exitDx=0;exitDy=0;edgeStyle=elbowEdgeStyle;elbow=vertical;" parent="1" source="y26kRBOYcE8LaACGCFeC-16" target="hJgWM3j1Ndd_bO8ZGJlk-46" edge="1">
          <mxGeometry width="100" height="100" relative="1" as="geometry">
            <mxPoint x="342.5" y="1225" as="sourcePoint" />
            <mxPoint x="557.5" y="1220" as="targetPoint" />
          </mxGeometry>
        </mxCell>
        <mxCell id="y26kRBOYcE8LaACGCFeC-18" value="" style="fontSize=12;html=1;endArrow=ERmandOne;rounded=0;entryX=0.5;entryY=1;entryDx=0;entryDy=0;exitX=1;exitY=0.5;exitDx=0;exitDy=0;edgeStyle=elbowEdgeStyle;elbow=vertical;" parent="1" source="y26kRBOYcE8LaACGCFeC-16" target="y26kRBOYcE8LaACGCFeC-1" edge="1">
          <mxGeometry width="100" height="100" relative="1" as="geometry">
            <mxPoint x="276.5432852445506" y="1129.95" as="sourcePoint" />
            <mxPoint x="70" y="733.7" as="targetPoint" />
          </mxGeometry>
        </mxCell>
        <mxCell id="P7wXK1TdlUyiZfC3mB5u-1" value="Owns" style="shape=rhombus;perimeter=rhombusPerimeter;whiteSpace=wrap;html=1;align=center;rotation=0;direction=west;" parent="1" vertex="1">
          <mxGeometry x="585" y="240" width="135" height="60" as="geometry" />
        </mxCell>
        <mxCell id="P7wXK1TdlUyiZfC3mB5u-3" value="" style="fontSize=12;html=1;endArrow=ERmandOne;rounded=0;entryX=0.25;entryY=1;entryDx=0;entryDy=0;exitX=0.5;exitY=1;exitDx=0;exitDy=0;" parent="1" source="P7wXK1TdlUyiZfC3mB5u-1" target="nOJYXH8r22cCcYCmpwuw-1" edge="1">
          <mxGeometry width="100" height="100" relative="1" as="geometry">
            <mxPoint x="520" y="315" as="sourcePoint" />
            <mxPoint x="620" y="215" as="targetPoint" />
          </mxGeometry>
        </mxCell>
        <mxCell id="P7wXK1TdlUyiZfC3mB5u-4" value="" style="fontSize=12;html=1;endArrow=ERzeroToMany;endFill=1;rounded=0;exitX=0.5;exitY=0;exitDx=0;exitDy=0;entryX=0.25;entryY=0;entryDx=0;entryDy=0;" parent="1" source="P7wXK1TdlUyiZfC3mB5u-1" target="nOJYXH8r22cCcYCmpwuw-3" edge="1">
          <mxGeometry width="100" height="100" relative="1" as="geometry">
            <mxPoint x="665" y="320" as="sourcePoint" />
            <mxPoint x="565" y="420" as="targetPoint" />
          </mxGeometry>
        </mxCell>
        <mxCell id="K-adlANlkOQ7GyRI4BY7-1" value="receives" style="shape=rhombus;perimeter=rhombusPerimeter;whiteSpace=wrap;html=1;align=center;" vertex="1" parent="1">
          <mxGeometry x="-5" y="240" width="70" height="40" as="geometry" />
        </mxCell>
        <mxCell id="K-adlANlkOQ7GyRI4BY7-2" value="" style="fontSize=12;html=1;endArrow=ERzeroToMany;endFill=1;rounded=0;exitX=0.5;exitY=1;exitDx=0;exitDy=0;entryX=0.872;entryY=0;entryDx=0;entryDy=0;entryPerimeter=0;" edge="1" parent="1" source="K-adlANlkOQ7GyRI4BY7-1" target="nOJYXH8r22cCcYCmpwuw-9">
          <mxGeometry width="100" height="100" relative="1" as="geometry">
            <mxPoint x="52.5" y="255" as="sourcePoint" />
            <mxPoint x="-170" y="300" as="targetPoint" />
          </mxGeometry>
        </mxCell>
        <mxCell id="K-adlANlkOQ7GyRI4BY7-5" value="" style="fontSize=12;html=1;endArrow=ERzeroToMany;endFill=1;rounded=0;exitX=0.5;exitY=1;exitDx=0;exitDy=0;entryX=0.155;entryY=0.042;entryDx=0;entryDy=0;entryPerimeter=0;" edge="1" parent="1" target="nOJYXH8r22cCcYCmpwuw-9">
          <mxGeometry width="100" height="100" relative="1" as="geometry">
            <mxPoint x="-47.5" y="280" as="sourcePoint" />
            <mxPoint x="-20" y="295" as="targetPoint" />
            <Array as="points">
              <mxPoint x="-47.5" y="295" />
            </Array>
          </mxGeometry>
        </mxCell>
        <mxCell id="K-adlANlkOQ7GyRI4BY7-6" value="" style="fontSize=12;html=1;endArrow=ERmandOne;rounded=0;exitX=0.5;exitY=0;exitDx=0;exitDy=0;entryX=0.5;entryY=1;entryDx=0;entryDy=0;elbow=vertical;" edge="1" parent="1" source="K-adlANlkOQ7GyRI4BY7-1" target="F2KtdEp4NuPGQQRKZKPt-3">
          <mxGeometry width="100" height="100" relative="1" as="geometry">
            <mxPoint x="170" y="330" as="sourcePoint" />
            <mxPoint x="270" y="230" as="targetPoint" />
          </mxGeometry>
        </mxCell>
        <mxCell id="K-adlANlkOQ7GyRI4BY7-7" value="R&lt;span style=&quot;background-color: initial;&quot;&gt;aises&lt;/span&gt;" style="shape=rhombus;double=1;perimeter=rhombusPerimeter;whiteSpace=wrap;html=1;align=center;" vertex="1" parent="1">
          <mxGeometry x="570" y="560" width="120" height="60" as="geometry" />
        </mxCell>
        <mxCell id="K-adlANlkOQ7GyRI4BY7-9" value="" style="endArrow=none;html=1;rounded=0;entryX=0.25;entryY=1;entryDx=0;entryDy=0;" edge="1" parent="1" target="YVMlVOvHzLtNW060m_QN-48">
          <mxGeometry relative="1" as="geometry">
            <mxPoint x="-207.5" y="1050" as="sourcePoint" />
            <mxPoint x="-47.5" y="1050" as="targetPoint" />
          </mxGeometry>
        </mxCell>
        <mxCell id="K-adlANlkOQ7GyRI4BY7-10" value="" style="endArrow=none;html=1;rounded=0;entryX=1;entryY=0;entryDx=0;entryDy=0;exitX=0.5;exitY=1;exitDx=0;exitDy=0;" edge="1" parent="1" source="nOJYXH8r22cCcYCmpwuw-9" target="aCeVzGXWgDTBMYjYpimo-1">
          <mxGeometry relative="1" as="geometry">
            <mxPoint x="-370" y="340" as="sourcePoint" />
            <mxPoint x="-210" y="340" as="targetPoint" />
          </mxGeometry>
        </mxCell>
        <mxCell id="K-adlANlkOQ7GyRI4BY7-11" value="" style="endArrow=none;html=1;rounded=0;entryX=0;entryY=0.5;entryDx=0;entryDy=0;" edge="1" parent="1" target="nOJYXH8r22cCcYCmpwuw-9">
          <mxGeometry relative="1" as="geometry">
            <mxPoint x="-130" y="330" as="sourcePoint" />
            <mxPoint x="-60" y="330" as="targetPoint" />
          </mxGeometry>
        </mxCell>
      </root>
    </mxGraphModel>
  </diagram>
</mxfile>
